<svg width="24" height="24" viewBox="0 0 24 24" fill="none" xmlns="http://www.w3.org/2000/svg">
<path d="M20.8333 4.93333C19.3226 4.53014 17.8467 4.00623 16.42 3.36667C15.0162 2.75774 13.6612 2.04232 12.3666 1.22667L12 1L11.64 1.23333C10.3454 2.04899 8.99033 2.76441 7.58663 3.37333C6.15749 4.01096 4.67939 4.53264 3.16663 4.93333L2.66663 5.06V10.62C2.66663 19.5467 11.6866 22.8867 11.7733 22.92L12 23L12.2266 22.92C12.32 22.92 21.3333 19.5533 21.3333 10.62V5.06L20.8333 4.93333ZM20 10.62C20 17.9533 13.3333 21.0267 12 21.5733C10.6666 21.0267 3.99996 17.9467 3.99996 10.62V6.09333C5.40627 5.68904 6.7829 5.18784 8.11996 4.59333C9.4571 4.01533 10.7534 3.34712 12 2.59333C13.2465 3.34712 14.5428 4.01533 15.88 4.59333C17.217 5.18784 18.5936 5.68904 20 6.09333V10.62Z" fill="#898989"/>
<path d="M7.25338 11.2467C7.12585 11.1375 6.9618 11.0804 6.79401 11.0869C6.62623 11.0933 6.46707 11.1629 6.34834 11.2816C6.22961 11.4004 6.16005 11.5595 6.15357 11.7273C6.14709 11.8951 6.20416 12.0591 6.31338 12.1867L10.3134 16.1867L17.6 9.18001C17.7274 9.05624 17.8003 8.88697 17.8028 8.70944C17.8053 8.5319 17.7371 8.36065 17.6134 8.23334C17.4896 8.10604 17.3203 8.03312 17.1428 8.03061C16.9653 8.02811 16.794 8.09624 16.6667 8.22001L10.3534 14.3467L7.25338 11.2467Z" fill="#898989"/>
</svg>
