<svg width="24" height="25" viewBox="0 0 24 25" fill="none" xmlns="http://www.w3.org/2000/svg">
<path fill-rule="evenodd" clip-rule="evenodd" d="M3 5.0077V19.0293C3 20.131 3.89 21.0324 5 21.0324H19C20.1 21.0324 21 20.131 21 19.0293V5.0077C21 3.90601 20.1 3.00462 19 3.00462H5C3.89 3.00462 3 3.90601 3 5.0077ZM15 9.01387C15 10.6764 13.66 12.0185 12 12.0185C10.34 12.0185 9 10.6764 9 9.01387C9 7.35131 10.34 6.00925 12 6.00925C13.66 6.00925 15 7.35131 15 9.01387ZM6 17.0262C6 15.0231 10 13.9214 12 13.9214C14 13.9214 18 15.0231 18 17.0262V18.0277H6V17.0262Z" fill="#898989"/>
</svg>
