<svg width="23" height="23" viewBox="0 0 23 23" fill="none" xmlns="http://www.w3.org/2000/svg">
<path d="M17.931 13.5456C17.9465 13.5456 17.9619 13.5425 17.9763 13.5365C17.9907 13.5305 18.0037 13.5216 18.0147 13.5105C18.0257 13.4994 18.0345 13.4861 18.0404 13.4716C18.0464 13.457 18.0494 13.4414 18.0494 13.4257C18.0494 13.4099 18.0464 13.3943 18.0404 13.3798C18.0345 13.3652 18.0257 13.352 18.0147 13.3408C18.0037 13.3297 17.9907 13.3208 17.9763 13.3148C17.9619 13.3088 17.9465 13.3057 17.931 13.3057C17.9154 13.3057 17.9 13.3088 17.8857 13.3148C17.8713 13.3208 17.8582 13.3297 17.8472 13.3408C17.8363 13.352 17.8275 13.3652 17.8216 13.3798C17.8156 13.3943 17.8126 13.4099 17.8126 13.4257C17.8126 13.4414 17.8156 13.457 17.8216 13.4716C17.8275 13.4861 17.8363 13.4994 17.8472 13.5105C17.8582 13.5216 17.8713 13.5305 17.8857 13.5365C17.9 13.5425 17.9154 13.5456 17.931 13.5456Z" fill="#1D1D1B"/>
<path d="M17.3151 15.2134C17.3654 15.2134 17.4136 15.1931 17.4491 15.1571C17.4847 15.1211 17.5046 15.0723 17.5046 15.0214C17.5046 14.9705 17.4847 14.9216 17.4491 14.8856C17.4136 14.8496 17.3654 14.8294 17.3151 14.8294C17.2649 14.8294 17.2167 14.8496 17.1811 14.8856C17.1456 14.9216 17.1256 14.9705 17.1256 15.0214C17.1256 15.0723 17.1456 15.1211 17.1811 15.1571C17.2167 15.1931 17.2649 15.2134 17.3151 15.2134Z" fill="#1D1D1B"/>
<path d="M16.3203 16.6531C16.3831 16.6531 16.4434 16.6278 16.4878 16.5828C16.5322 16.5378 16.5572 16.4768 16.5572 16.4132C16.5588 16.3806 16.5538 16.3481 16.5426 16.3176C16.5315 16.2871 16.5143 16.2592 16.4921 16.2357C16.47 16.2121 16.4433 16.1933 16.4138 16.1805C16.3842 16.1677 16.3524 16.1612 16.3203 16.1612C16.2876 16.1612 16.2553 16.1677 16.2251 16.1804C16.1949 16.193 16.1675 16.2116 16.1444 16.235C16.1213 16.2584 16.103 16.2862 16.0905 16.3167C16.078 16.3473 16.0716 16.3801 16.0716 16.4132C16.0715 16.4457 16.078 16.4779 16.0907 16.5078C16.1033 16.5378 16.1218 16.5648 16.1451 16.5872C16.1684 16.6097 16.1959 16.6271 16.226 16.6384C16.2561 16.6497 16.2882 16.6547 16.3203 16.6531Z" fill="#1D1D1B"/>
<path d="M15.0057 17.8049C15.0647 17.8073 15.123 17.7918 15.1733 17.7603C15.2235 17.7288 15.2633 17.6829 15.2875 17.6283C15.3117 17.5737 15.3193 17.5131 15.3093 17.4541C15.2992 17.3952 15.272 17.3406 15.2311 17.2975C15.1902 17.2543 15.1375 17.2245 15.0798 17.212C15.022 17.1994 14.9619 17.2046 14.9071 17.2269C14.8523 17.2492 14.8054 17.2876 14.7723 17.3371C14.7392 17.3867 14.7215 17.4451 14.7214 17.505C14.7214 17.5825 14.7509 17.657 14.8039 17.7129C14.8569 17.7688 14.9292 17.8018 15.0057 17.8049Z" fill="#1D1D1B"/>
<path d="M13.4779 18.5488C13.5388 18.5488 13.5983 18.5305 13.6489 18.4962C13.6996 18.4619 13.739 18.4132 13.7623 18.3562C13.7856 18.2992 13.7917 18.2365 13.7799 18.176C13.768 18.1155 13.7387 18.0599 13.6956 18.0162C13.6525 17.9726 13.5977 17.9429 13.5379 17.9309C13.4782 17.9188 13.4163 17.925 13.36 17.9486C13.3037 17.9722 13.2557 18.0122 13.2218 18.0635C13.188 18.1148 13.1699 18.1751 13.1699 18.2368C13.1699 18.3196 13.2024 18.3989 13.2601 18.4574C13.3179 18.5159 13.3962 18.5488 13.4779 18.5488Z" fill="#1D1D1B"/>
<path d="M11.8435 18.8727C11.9077 18.8751 11.9711 18.8578 12.0254 18.8232C12.0798 18.7885 12.1226 18.738 12.1483 18.6784C12.1739 18.6187 12.1812 18.5526 12.1693 18.4887C12.1573 18.4248 12.1266 18.3659 12.0812 18.3199C12.0358 18.2739 11.9777 18.2428 11.9146 18.2307C11.8515 18.2186 11.7863 18.226 11.7274 18.252C11.6685 18.278 11.6187 18.3214 11.5845 18.3764C11.5503 18.4315 11.5332 18.4957 11.5355 18.5608C11.5385 18.6426 11.5719 18.7202 11.629 18.7781C11.6861 18.8359 11.7627 18.8697 11.8435 18.8727Z" fill="#1D1D1B"/>
<path d="M10.1262 18.7767C10.3028 18.7767 10.4459 18.6317 10.4459 18.4528C10.4459 18.2739 10.3028 18.1288 10.1262 18.1288C9.94955 18.1288 9.80638 18.2739 9.80638 18.4528C9.80638 18.6317 9.94955 18.7767 10.1262 18.7767Z" fill="#1D1D1B"/>
<path d="M8.50361 18.2848C8.5882 18.2692 8.66471 18.2241 8.71981 18.1572C8.7749 18.0903 8.80508 18.006 8.80508 17.9189C8.80508 17.8318 8.7749 17.7474 8.71981 17.6806C8.66471 17.6137 8.5882 17.5685 8.50361 17.5529C8.41901 17.5685 8.3425 17.6137 8.2874 17.6806C8.23231 17.7474 8.20213 17.8318 8.20213 17.9189C8.20213 18.006 8.23231 18.0903 8.2874 18.1572C8.3425 18.2241 8.41901 18.2692 8.50361 18.2848Z" fill="#1D1D1B"/>
<path d="M7.08239 17.385C7.2917 17.385 7.46138 17.2131 7.46138 17.001C7.46138 16.789 7.2917 16.6171 7.08239 16.6171C6.87308 16.6171 6.7034 16.789 6.7034 17.001C6.7034 17.2131 6.87308 17.385 7.08239 17.385Z" fill="#1D1D1B"/>
<path d="M5.92173 16.2092C6.01074 16.2092 6.09776 16.1824 6.17177 16.1323C6.24578 16.0822 6.30346 16.011 6.33752 15.9277C6.37159 15.8444 6.3805 15.7528 6.36314 15.6643C6.34577 15.5759 6.30291 15.4946 6.23997 15.4309C6.17703 15.3671 6.09683 15.3237 6.00953 15.3061C5.92223 15.2885 5.83174 15.2975 5.7495 15.332C5.66727 15.3666 5.59698 15.425 5.54753 15.5C5.49807 15.5749 5.47168 15.6631 5.47168 15.7533C5.47168 15.8742 5.5191 15.9901 5.6035 16.0756C5.6879 16.1611 5.80237 16.2092 5.92173 16.2092Z" fill="#1D1D1B"/>
<path d="M5.10453 14.7694C5.24068 14.7663 5.3702 14.7093 5.46538 14.6106C5.56056 14.512 5.61384 14.3795 5.6138 14.2415C5.6138 14.1047 5.56015 13.9735 5.46464 13.8767C5.36913 13.78 5.2396 13.7256 5.10453 13.7256C4.96835 13.7256 4.83757 13.7795 4.74018 13.876C4.64278 13.9724 4.58651 14.1036 4.58342 14.2415C4.58342 14.3815 4.63832 14.5158 4.73605 14.6148C4.83378 14.7138 4.96632 14.7694 5.10453 14.7694Z" fill="#1D1D1B"/>
<path d="M4.73739 13.1977C4.89445 13.1977 5.04507 13.1345 5.15612 13.022C5.26717 12.9095 5.32956 12.7569 5.32956 12.5978C5.32956 12.4387 5.26717 12.2861 5.15612 12.1736C5.04507 12.0611 4.89445 11.9979 4.73739 11.9979C4.58034 11.9979 4.42972 12.0611 4.31866 12.1736C4.20761 12.2861 4.14522 12.4387 4.14522 12.5978C4.14522 12.7569 4.20761 12.9095 4.31866 13.022C4.42972 13.1345 4.58034 13.1977 4.73739 13.1977Z" fill="#1D1D1B"/>
<path d="M4.73739 11.446C4.85217 11.446 4.96437 11.4115 5.0598 11.3469C5.15524 11.2823 5.22962 11.1905 5.27354 11.0831C5.31747 10.9757 5.32896 10.8575 5.30657 10.7434C5.28417 10.6294 5.2289 10.5246 5.14774 10.4424C5.06658 10.3602 4.96318 10.3042 4.85061 10.2815C4.73803 10.2588 4.62135 10.2705 4.51531 10.315C4.40926 10.3595 4.31863 10.4348 4.25486 10.5315C4.19109 10.6282 4.15706 10.7418 4.15706 10.8581C4.15706 11.014 4.2182 11.1636 4.32703 11.2738C4.43587 11.3841 4.58348 11.446 4.73739 11.446Z" fill="#1D1D1B"/>
<path d="M5.10454 9.8023C5.25953 9.79916 5.40712 9.73457 5.51563 9.62241C5.62413 9.51024 5.6849 9.35945 5.68487 9.2024C5.68487 9.0433 5.62248 8.89072 5.51142 8.77821C5.40037 8.66571 5.24975 8.60251 5.09269 8.60251C4.93564 8.60251 4.78502 8.66571 4.67396 8.77821C4.56291 8.89072 4.50052 9.0433 4.50052 9.2024C4.5005 9.2822 4.5162 9.3612 4.5467 9.43478C4.5772 9.50836 4.62188 9.57503 4.67813 9.63089C4.73438 9.68676 4.80106 9.73069 4.87428 9.76013C4.9475 9.78956 5.02578 9.8039 5.10454 9.8023Z" fill="#1D1D1B"/>
<path d="M5.92174 8.39854C6.10078 8.39854 6.27249 8.32649 6.39909 8.19823C6.52569 8.06998 6.59681 7.89603 6.59681 7.71466C6.59681 7.53328 6.52569 7.35933 6.39909 7.23108C6.27249 7.10283 6.10078 7.03078 5.92174 7.03078C5.74269 7.03078 5.57099 7.10283 5.44438 7.23108C5.31778 7.35933 5.24666 7.53328 5.24666 7.71466C5.24666 7.89603 5.31778 8.06998 5.44438 8.19823C5.57099 8.32649 5.74269 8.39854 5.92174 8.39854Z" fill="#1D1D1B"/>
<path d="M7.08239 7.15075C7.4683 7.15075 7.78115 6.83383 7.78115 6.44288C7.78115 6.05193 7.4683 5.735 7.08239 5.735C6.69647 5.735 6.38362 6.05193 6.38362 6.44288C6.38362 6.83383 6.69647 7.15075 7.08239 7.15075Z" fill="#1D1D1B"/>
<path d="M8.5036 6.26291C8.64931 6.26529 8.79243 6.2237 8.91473 6.14342C9.03703 6.06315 9.13299 5.94782 9.19038 5.81212C9.24778 5.67642 9.26402 5.52649 9.23704 5.38142C9.21006 5.23634 9.14108 5.10267 9.03887 4.99744C8.93667 4.8922 8.80586 4.82015 8.66311 4.79047C8.52036 4.76078 8.37211 4.77479 8.23724 4.83072C8.10238 4.88665 7.98699 4.98198 7.90577 5.10455C7.82455 5.22713 7.78117 5.37141 7.78115 5.51904C7.77958 5.61616 7.7971 5.71262 7.8327 5.8028C7.86831 5.89299 7.92127 5.97509 7.98852 6.04433C8.05576 6.11357 8.13593 6.16855 8.22437 6.20608C8.3128 6.24361 8.40772 6.26293 8.5036 6.26291Z" fill="#1D1D1B"/>
<path d="M10.1262 5.747C10.5382 5.747 10.8723 5.40858 10.8723 4.99113C10.8723 4.57367 10.5382 4.23526 10.1262 4.23526C9.71408 4.23526 9.38002 4.57367 9.38002 4.99113C9.38002 5.40858 9.71408 5.747 10.1262 5.747Z" fill="#1D1D1B"/>
<path d="M11.8435 5.65102C12.0445 5.65102 12.2373 5.57012 12.3794 5.42612C12.5216 5.28212 12.6014 5.08681 12.6014 4.88316C12.5983 4.68159 12.5171 4.48935 12.3753 4.34793C12.2335 4.20651 12.0425 4.12726 11.8435 4.12729C11.6456 4.12729 11.4558 4.20692 11.3159 4.34868C11.1759 4.49043 11.0973 4.68269 11.0973 4.88316C11.0973 5.08475 11.1755 5.27826 11.3151 5.42192C11.4547 5.56559 11.6445 5.64787 11.8435 5.65102Z" fill="#1D1D1B"/>
<path d="M13.4779 5.99895C13.5774 5.99585 13.6754 5.9729 13.7662 5.93142C13.857 5.88993 13.9388 5.83073 14.007 5.75719C14.0752 5.68365 14.1284 5.59721 14.1636 5.50282C14.1988 5.40843 14.2153 5.30794 14.2122 5.20709C14.2122 5.00344 14.1323 4.80813 13.9902 4.66413C13.848 4.52012 13.6552 4.43922 13.4542 4.43922C13.3546 4.43922 13.2561 4.45909 13.1641 4.49767C13.0721 4.53626 12.9886 4.59282 12.9182 4.66413C12.8478 4.73543 12.792 4.82008 12.7539 4.91324C12.7158 5.0064 12.6962 5.10625 12.6962 5.20709C12.6962 5.30793 12.7158 5.40778 12.7539 5.50094C12.792 5.5941 12.8478 5.67875 12.9182 5.75005C12.9886 5.82136 13.0721 5.87792 13.1641 5.91651C13.2561 5.9551 13.3546 5.97496 13.4542 5.97496L13.4779 5.99895Z" fill="#1D1D1B"/>
<path d="M15.0057 6.71883C15.4308 6.71883 15.7755 6.36967 15.7755 5.93897C15.7755 5.50826 15.4308 5.1591 15.0057 5.1591C14.5805 5.1591 14.2358 5.50826 14.2358 5.93897C14.2358 6.36967 14.5805 6.71883 15.0057 6.71883Z" fill="#1D1D1B"/>
<path d="M16.3203 7.82265C16.5255 7.8195 16.7213 7.73468 16.8654 7.58652C17.0094 7.43836 17.0901 7.23874 17.0901 7.03079C17.0667 6.83908 16.9749 6.66267 16.832 6.53474C16.6892 6.40682 16.505 6.33621 16.3144 6.33621C16.1237 6.33621 15.9396 6.40682 15.7967 6.53474C15.6538 6.66267 15.562 6.83908 15.5386 7.03079C15.5386 7.13478 15.5588 7.23775 15.5981 7.33382C15.6374 7.42989 15.695 7.51719 15.7676 7.59072C15.8402 7.66425 15.9263 7.72258 16.0212 7.76237C16.116 7.80217 16.2176 7.82265 16.3203 7.82265Z" fill="#1D1D1B"/>
<path d="M17.3151 9.21441C17.4198 9.21446 17.5234 9.19321 17.6198 9.15192C17.7163 9.11063 17.8035 9.05015 17.8764 8.97406C17.9493 8.89797 18.0064 8.80782 18.0442 8.70896C18.0821 8.6101 18.1 8.50454 18.0968 8.39855C18.0991 8.23856 18.0543 8.08151 17.968 7.94749C17.8817 7.81348 17.7579 7.70859 17.6125 7.64627C17.467 7.58395 17.3065 7.56702 17.1515 7.59765C16.9964 7.62828 16.854 7.70509 16.7423 7.81822C16.6306 7.93136 16.5548 8.07569 16.5246 8.23274C16.4943 8.38978 16.511 8.55239 16.5725 8.69976C16.6341 8.84712 16.7376 8.97254 16.8699 9.05995C17.0022 9.14736 17.1572 9.19278 17.3151 9.19041V9.21441Z" fill="#1D1D1B"/>
<path d="M17.931 10.8701C18.3954 10.8701 18.7719 10.4887 18.7719 10.0183C18.7719 9.5478 18.3954 9.16641 17.931 9.16641C17.4666 9.16641 17.0901 9.5478 17.0901 10.0183C17.0901 10.4887 17.4666 10.8701 17.931 10.8701Z" fill="#1D1D1B"/>
<path d="M19.5062 11.758C19.5258 11.758 19.5417 11.7418 19.5417 11.722C19.5417 11.7021 19.5258 11.686 19.5062 11.686C19.4865 11.686 19.4706 11.7021 19.4706 11.722C19.4706 11.7418 19.4865 11.758 19.5062 11.758Z" fill="#1D1D1B"/>
<path d="M19.3285 13.5336C19.3547 13.5307 19.3789 13.518 19.3964 13.4981C19.4139 13.4781 19.4234 13.4523 19.4233 13.4257C19.4207 13.4011 19.4099 13.3782 19.3927 13.3607C19.3754 13.3432 19.3528 13.3323 19.3285 13.3297C19.3022 13.3295 19.2767 13.3392 19.2571 13.357C19.2374 13.3747 19.2249 13.3992 19.2219 13.4257C19.2219 13.4543 19.2332 13.4818 19.2532 13.502C19.2731 13.5223 19.3003 13.5336 19.3285 13.5336Z" fill="#1D1D1B"/>
<path d="M18.7956 15.2254C18.8806 15.2254 18.9495 15.1555 18.9495 15.0694C18.9495 14.9832 18.8806 14.9134 18.7956 14.9134C18.7105 14.9134 18.6416 14.9832 18.6416 15.0694C18.6416 15.1555 18.7105 15.2254 18.7956 15.2254Z" fill="#1D1D1B"/>
<path d="M17.9547 16.7971C18.0072 16.7942 18.0567 16.7718 18.0939 16.7341C18.1311 16.6965 18.1532 16.6463 18.156 16.5931C18.1561 16.5379 18.1353 16.4847 18.0978 16.4445C18.0604 16.4043 18.0091 16.3802 17.9547 16.3772C17.8981 16.3772 17.8439 16.3999 17.8039 16.4404C17.764 16.4809 17.7415 16.5358 17.7415 16.5931C17.7445 16.6483 17.7683 16.7002 17.808 16.7381C17.8476 16.7761 17.9001 16.7972 17.9547 16.7971Z" fill="#1D1D1B"/>
<path d="M16.8177 18.0689C16.8646 18.0689 16.9104 18.0548 16.9493 18.0284C16.9883 18.0021 17.0186 17.9646 17.0365 17.9207C17.0545 17.8769 17.0592 17.8286 17.05 17.7821C17.0409 17.7355 17.0183 17.6928 16.9852 17.6592C16.9521 17.6257 16.9099 17.6028 16.8639 17.5936C16.818 17.5843 16.7703 17.589 16.7271 17.6072C16.6838 17.6254 16.6468 17.6561 16.6208 17.6956C16.5947 17.735 16.5808 17.7814 16.5808 17.8289C16.5808 17.8925 16.6058 17.9536 16.6502 17.9986C16.6946 18.0436 16.7549 18.0689 16.8177 18.0689Z" fill="#1D1D1B"/>
<path d="M15.3965 19.1127C15.4504 19.1127 15.503 19.0965 15.5478 19.0662C15.5926 19.0359 15.6275 18.9928 15.6482 18.9423C15.6688 18.8919 15.6742 18.8364 15.6637 18.7829C15.6532 18.7294 15.6272 18.6802 15.5891 18.6416C15.551 18.603 15.5025 18.5767 15.4496 18.5661C15.3968 18.5554 15.342 18.5609 15.2923 18.5818C15.2425 18.6027 15.1999 18.638 15.17 18.6834C15.1401 18.7288 15.1241 18.7821 15.1241 18.8367C15.1241 18.9099 15.1528 18.9801 15.2039 19.0319C15.255 19.0836 15.3243 19.1127 15.3965 19.1127Z" fill="#1D1D1B"/>
<path d="M13.8924 19.8326C14.0559 19.8326 14.1885 19.6983 14.1885 19.5326C14.1885 19.3669 14.0559 19.2327 13.8924 19.2327C13.7289 19.2327 13.5963 19.3669 13.5963 19.5326C13.5963 19.6983 13.7289 19.8326 13.8924 19.8326Z" fill="#1D1D1B"/>
<path d="M12.2343 20.2165C12.2975 20.2165 12.3594 20.1975 12.412 20.1619C12.4645 20.1263 12.5055 20.0757 12.5297 20.0165C12.5539 19.9573 12.5603 19.8922 12.5479 19.8293C12.5356 19.7665 12.5051 19.7088 12.4604 19.6635C12.4157 19.6182 12.3587 19.5873 12.2967 19.5748C12.2346 19.5623 12.1704 19.5687 12.1119 19.5933C12.0535 19.6178 12.0035 19.6593 11.9684 19.7126C11.9333 19.7658 11.9145 19.8285 11.9145 19.8925C11.9145 19.9785 11.9482 20.0609 12.0082 20.1216C12.0681 20.1824 12.1495 20.2165 12.2343 20.2165Z" fill="#1D1D1B"/>
<path d="M10.5407 20.2165C10.7173 20.2165 10.8604 20.0715 10.8604 19.8925C10.8604 19.7136 10.7173 19.5686 10.5407 19.5686C10.3641 19.5686 10.2209 19.7136 10.2209 19.8925C10.2209 20.0715 10.3641 20.2165 10.5407 20.2165Z" fill="#1D1D1B"/>
<path d="M8.8826 19.8925C9.07883 19.8925 9.23791 19.7314 9.23791 19.5326C9.23791 19.3338 9.07883 19.1727 8.8826 19.1727C8.68637 19.1727 8.5273 19.3338 8.5273 19.5326C8.5273 19.7314 8.68637 19.8925 8.8826 19.8925Z" fill="#1D1D1B"/>
<path d="M7.33111 19.2207C7.54042 19.2207 7.7101 19.0488 7.7101 18.8367C7.7101 18.6247 7.54042 18.4528 7.33111 18.4528C7.1218 18.4528 6.95212 18.6247 6.95212 18.8367C6.95212 19.0488 7.1218 19.2207 7.33111 19.2207Z" fill="#1D1D1B"/>
<path d="M5.92173 18.2728C6.0084 18.2728 6.09312 18.2468 6.16518 18.198C6.23725 18.1492 6.29341 18.0799 6.32658 17.9988C6.35975 17.9177 6.36842 17.8284 6.35152 17.7423C6.33461 17.6562 6.29287 17.5771 6.23159 17.515C6.1703 17.4529 6.09222 17.4106 6.00722 17.3935C5.92221 17.3764 5.83411 17.3852 5.75403 17.4188C5.67396 17.4524 5.60552 17.5093 5.55737 17.5823C5.50922 17.6553 5.48352 17.7411 5.48352 17.8289C5.48652 17.9457 5.53365 18.0568 5.61519 18.1394C5.69673 18.222 5.80645 18.2698 5.92173 18.2728Z" fill="#1D1D1B"/>
<path d="M4.82028 17.037C4.91729 17.0394 5.01278 17.0123 5.09442 16.9592C5.17606 16.906 5.24012 16.8293 5.27833 16.739C5.31655 16.6486 5.32716 16.5487 5.3088 16.4522C5.29044 16.3557 5.24396 16.2669 5.17535 16.1974C5.10673 16.1279 5.01913 16.0808 4.92385 16.0622C4.82856 16.0436 4.72997 16.0544 4.64077 16.0931C4.55157 16.1318 4.47587 16.1967 4.42343 16.2794C4.37099 16.3621 4.34421 16.4588 4.34655 16.5571C4.34655 16.6844 4.39646 16.8065 4.4853 16.8965C4.57414 16.9865 4.69464 17.037 4.82028 17.037Z" fill="#1D1D1B"/>
<path d="M3.97941 15.5973C4.09 15.5973 4.19808 15.5639 4.28986 15.5014C4.38163 15.4389 4.45295 15.3501 4.49471 15.2463C4.53647 15.1426 4.54678 15.0286 4.52433 14.9189C4.50187 14.8092 4.44767 14.7088 4.36863 14.6304C4.28959 14.552 4.18931 14.4993 4.08056 14.4789C3.97181 14.4585 3.85954 14.4714 3.75805 14.5159C3.65657 14.5605 3.57048 14.6346 3.51076 14.7289C3.45105 14.8232 3.42041 14.9334 3.42276 15.0454C3.42586 15.1929 3.48587 15.3332 3.58993 15.4364C3.69399 15.5396 3.8338 15.5973 3.97941 15.5973Z" fill="#1D1D1B"/>
<path d="M3.44644 14.0016C3.59627 13.9985 3.73911 13.9368 3.84507 13.8295C3.95104 13.7222 4.0119 13.5774 4.01493 13.4257C4.01183 13.275 3.95057 13.1316 3.84429 13.0262C3.73802 12.9208 3.59519 12.8617 3.44644 12.8618C3.37334 12.8618 3.30096 12.8764 3.23343 12.9047C3.16589 12.933 3.10453 12.9746 3.05284 13.0269C3.00115 13.0793 2.96015 13.1415 2.93217 13.2099C2.9042 13.2783 2.8898 13.3516 2.8898 13.4257C2.88977 13.5764 2.94803 13.721 3.0521 13.8287C3.15616 13.9364 3.29773 13.9984 3.44644 14.0016Z" fill="#1D1D1B"/>
<path d="M3.26879 12.2979C3.58275 12.2979 3.83727 12.04 3.83727 11.722C3.83727 11.4039 3.58275 11.1461 3.26879 11.1461C2.95482 11.1461 2.7003 11.4039 2.7003 11.722C2.7003 12.04 2.95482 12.2979 3.26879 12.2979Z" fill="#1D1D1B"/>
<path d="M3.44645 10.5942C3.60351 10.5942 3.75413 10.531 3.86518 10.4184C3.97624 10.3059 4.03862 10.1534 4.03862 9.99426C4.03862 9.83516 3.97624 9.68257 3.86518 9.57007C3.75413 9.45757 3.60351 9.39436 3.44645 9.39436C3.2894 9.39436 3.13878 9.45757 3.02772 9.57007C2.91667 9.68257 2.85428 9.83516 2.85428 9.99426C2.85428 10.1534 2.91667 10.3059 3.02772 10.4184C3.13878 10.531 3.2894 10.5942 3.44645 10.5942Z" fill="#1D1D1B"/>
<path d="M3.9794 9.01044C4.10204 8.96677 4.20826 8.88559 4.28341 8.77814C4.35856 8.67068 4.39892 8.54224 4.39892 8.41055C4.39892 8.27886 4.35856 8.15042 4.28341 8.04296C4.20826 7.9355 4.10204 7.85433 3.9794 7.81065C3.88475 7.77694 3.78351 7.76671 3.68415 7.7808C3.58479 7.7949 3.49022 7.83292 3.40836 7.89167C3.32649 7.95042 3.25972 8.0282 3.21364 8.11848C3.16756 8.20876 3.14351 8.30891 3.14351 8.41055C3.14351 8.51218 3.16756 8.61234 3.21364 8.70262C3.25972 8.7929 3.32649 8.87067 3.40836 8.92942C3.49022 8.98818 3.58479 9.02619 3.68415 9.04029C3.78351 9.05439 3.88475 9.04415 3.9794 9.01044Z" fill="#1D1D1B"/>
<path d="M4.82029 7.55869C5.18659 7.55869 5.48353 7.25787 5.48353 6.8868C5.48353 6.51573 5.18659 6.21492 4.82029 6.21492C4.454 6.21492 4.15706 6.51573 4.15706 6.8868C4.15706 7.25787 4.454 7.55869 4.82029 7.55869Z" fill="#1D1D1B"/>
<path d="M5.92172 6.3109C6.05758 6.3109 6.19039 6.27009 6.30336 6.19363C6.41632 6.11716 6.50436 6.00848 6.55635 5.88132C6.60835 5.75417 6.62195 5.61425 6.59544 5.47926C6.56894 5.34428 6.50352 5.22028 6.40745 5.12296C6.31138 5.02564 6.18898 4.95937 6.05573 4.93252C5.92249 4.90566 5.78437 4.91945 5.65885 4.97211C5.53333 5.02478 5.42605 5.11398 5.35057 5.22841C5.27509 5.34285 5.2348 5.47739 5.2348 5.61502C5.2348 5.79958 5.30717 5.97658 5.436 6.10708C5.56482 6.23759 5.73954 6.3109 5.92172 6.3109Z" fill="#1D1D1B"/>
<path d="M7.33111 5.32708C7.72356 5.32708 8.04171 5.00478 8.04171 4.6072C8.04171 4.20963 7.72356 3.88733 7.33111 3.88733C6.93865 3.88733 6.6205 4.20963 6.6205 4.6072C6.6205 5.00478 6.93865 5.32708 7.33111 5.32708Z" fill="#1D1D1B"/>
<path d="M8.8826 4.66719C9.03299 4.66957 9.18069 4.62656 9.30689 4.54365C9.43308 4.46074 9.53208 4.34166 9.59127 4.20158C9.65046 4.06149 9.66717 3.90674 9.63927 3.75701C9.61138 3.60727 9.54014 3.46933 9.43462 3.36074C9.3291 3.25215 9.19407 3.17782 9.04673 3.1472C8.89938 3.11659 8.74637 3.13108 8.60718 3.18883C8.46798 3.24658 8.34889 3.34497 8.26507 3.47149C8.18125 3.59802 8.13648 3.74694 8.13646 3.89932C8.13644 4.10091 8.21467 4.29442 8.35426 4.43808C8.49386 4.58175 8.68363 4.66404 8.8826 4.66719Z" fill="#1D1D1B"/>
<path d="M10.5407 4.30725C10.9528 4.30725 11.2868 3.96884 11.2868 3.55139C11.2868 3.13393 10.9528 2.79552 10.5407 2.79552C10.1286 2.79552 9.79454 3.13393 9.79454 3.55139C9.79454 3.96884 10.1286 4.30725 10.5407 4.30725Z" fill="#1D1D1B"/>
<path d="M12.2343 4.30725C12.4315 4.31722 12.6248 4.24882 12.773 4.11661C12.9212 3.9844 13.0126 3.79883 13.0278 3.59937C13.0278 3.39095 12.9461 3.19106 12.8006 3.04368C12.6551 2.8963 12.4578 2.81351 12.2521 2.81351C12.0463 2.81351 11.849 2.8963 11.7035 3.04368C11.558 3.19106 11.4763 3.39095 11.4763 3.59937C11.4913 3.79245 11.5777 3.97268 11.7182 4.10395C11.8588 4.23522 12.0431 4.30784 12.2343 4.30725Z" fill="#1D1D1B"/>
<path d="M13.8924 4.67919C14.0451 4.68157 14.1951 4.63786 14.3233 4.55363C14.4514 4.4694 14.5519 4.34845 14.612 4.20617C14.6721 4.0639 14.689 3.90673 14.6607 3.75467C14.6323 3.60261 14.56 3.46253 14.4528 3.35226C14.3456 3.24199 14.2085 3.16652 14.0588 3.13544C13.9092 3.10436 13.7538 3.11909 13.6124 3.17775C13.4711 3.2364 13.3501 3.33634 13.265 3.46483C13.1799 3.59333 13.1344 3.74458 13.1344 3.89932C13.1328 4.00117 13.1513 4.10231 13.1887 4.19686C13.2261 4.29141 13.2816 4.37748 13.3522 4.45006C13.4227 4.52264 13.5068 4.58028 13.5996 4.61961C13.6923 4.65895 13.7918 4.6792 13.8924 4.67919Z" fill="#1D1D1B"/>
<path d="M15.3965 5.38706C15.5488 5.38706 15.6976 5.34132 15.8242 5.25563C15.9508 5.16994 16.0495 5.04814 16.1077 4.90564C16.166 4.76314 16.1812 4.60633 16.1515 4.45505C16.1218 4.30377 16.0485 4.16481 15.9409 4.05575C15.8332 3.94668 15.696 3.87241 15.5467 3.84232C15.3974 3.81223 15.2426 3.82767 15.1019 3.8867C14.9612 3.94572 14.841 4.04568 14.7564 4.17393C14.6718 4.30217 14.6267 4.45295 14.6267 4.6072C14.6267 4.81403 14.7078 5.01239 14.8522 5.15864C14.9965 5.3049 15.1923 5.38706 15.3965 5.38706Z" fill="#1D1D1B"/>
<path d="M16.8177 6.40689C16.9723 6.40689 17.1234 6.36045 17.252 6.27344C17.3805 6.18643 17.4807 6.06275 17.5399 5.91806C17.599 5.77337 17.6145 5.61415 17.5844 5.46054C17.5542 5.30694 17.4798 5.16584 17.3704 5.0551C17.2611 4.94435 17.1218 4.86894 16.9702 4.83838C16.8186 4.80783 16.6614 4.82351 16.5186 4.88344C16.3757 4.94338 16.2537 5.04487 16.1678 5.17509C16.0819 5.30531 16.036 5.45841 16.036 5.61503C16.0391 5.82408 16.1224 6.0237 16.2684 6.17153C16.4143 6.31937 16.6114 6.40379 16.8177 6.40689Z" fill="#1D1D1B"/>
<path d="M17.9547 7.69067C18.3929 7.69067 18.7482 7.33077 18.7482 6.88681C18.7482 6.44285 18.3929 6.08295 17.9547 6.08295C17.5164 6.08295 17.1612 6.44285 17.1612 6.88681C17.1612 7.33077 17.5164 7.69067 17.9547 7.69067Z" fill="#1D1D1B"/>
<path d="M18.7956 9.19041C18.9563 9.19274 19.1141 9.14626 19.2486 9.05697C19.383 8.96768 19.488 8.83966 19.5501 8.6894C19.6121 8.53913 19.6283 8.37349 19.5966 8.21381C19.5649 8.05413 19.4868 7.90772 19.3722 7.79342C19.2577 7.67911 19.112 7.60216 18.9539 7.57246C18.7958 7.54276 18.6326 7.56167 18.4852 7.62676C18.3378 7.69185 18.2131 7.80014 18.1269 7.93769C18.0408 8.07523 17.9973 8.23574 18.0021 8.39855C18.0052 8.60966 18.0901 8.81105 18.2386 8.95922C18.3871 9.10739 18.5872 9.19043 18.7956 9.19041Z" fill="#1D1D1B"/>
<path d="M19.3285 10.8581C19.4953 10.8581 19.6584 10.8078 19.7969 10.7137C19.9354 10.6195 20.0432 10.4858 20.1065 10.3294C20.1698 10.1731 20.1857 10.0012 20.1523 9.83561C20.1189 9.67004 20.0376 9.51829 19.9188 9.39965C19.8 9.28101 19.6491 9.20084 19.4852 9.16934C19.3213 9.13783 19.1519 9.15643 18.9984 9.22274C18.845 9.28906 18.7145 9.40011 18.6236 9.54177C18.5326 9.68342 18.4853 9.84928 18.4876 10.0183C18.4876 10.1296 18.5095 10.2398 18.5519 10.3424C18.5943 10.4451 18.6564 10.5383 18.7346 10.6164C18.8129 10.6945 18.9057 10.7562 19.0076 10.7977C19.1096 10.8391 19.2187 10.8597 19.3285 10.8581Z" fill="#1D1D1B"/>
<path d="M20.8563 11.758C20.876 11.758 20.8919 11.7418 20.8919 11.722C20.8919 11.7021 20.876 11.686 20.8563 11.686C20.8367 11.686 20.8208 11.7021 20.8208 11.722C20.8208 11.7418 20.8367 11.758 20.8563 11.758Z" fill="#1D1D1B"/>
<path d="M20.7024 13.5217C20.7188 13.5217 20.7348 13.5167 20.7484 13.5075C20.7621 13.4983 20.7727 13.4852 20.779 13.4698C20.7852 13.4545 20.7869 13.4376 20.7837 13.4213C20.7805 13.405 20.7726 13.39 20.761 13.3783C20.7494 13.3665 20.7346 13.3585 20.7185 13.3553C20.7025 13.3521 20.6858 13.3537 20.6706 13.3601C20.6555 13.3664 20.6425 13.3772 20.6334 13.391C20.6243 13.4048 20.6195 13.4211 20.6195 13.4377C20.6195 13.4599 20.6282 13.4813 20.6437 13.4971C20.6593 13.5128 20.6804 13.5217 20.7024 13.5217Z" fill="#1D1D1B"/>
<path d="M20.2523 15.2254C20.3243 15.2254 20.3826 15.1663 20.3826 15.0934C20.3826 15.0205 20.3243 14.9614 20.2523 14.9614C20.1804 14.9614 20.122 15.0205 20.122 15.0934C20.122 15.1663 20.1804 15.2254 20.2523 15.2254Z" fill="#1D1D1B"/>
<path d="M19.518 16.7971C19.562 16.7971 19.6042 16.7794 19.6353 16.7479C19.6664 16.7164 19.6838 16.6737 19.6838 16.6291C19.6838 16.5846 19.6664 16.5418 19.6353 16.5103C19.6042 16.4788 19.562 16.4611 19.518 16.4611C19.4741 16.4611 19.4319 16.4788 19.4008 16.5103C19.3697 16.5418 19.3522 16.5846 19.3522 16.6291C19.3522 16.6737 19.3697 16.7164 19.4008 16.7479C19.4319 16.7794 19.4741 16.7971 19.518 16.7971Z" fill="#1D1D1B"/>
<path d="M18.5113 18.2488C18.569 18.2489 18.6245 18.2265 18.6664 18.1864C18.7083 18.1462 18.7333 18.0912 18.7363 18.0329C18.7335 17.9733 18.7088 17.917 18.6673 17.8749C18.6257 17.8328 18.5701 17.8078 18.5113 17.8049C18.4537 17.808 18.3995 17.8334 18.3598 17.8758C18.3201 17.9182 18.2981 17.9744 18.2981 18.0329C18.2981 18.0901 18.3206 18.1451 18.3606 18.1856C18.4006 18.2261 18.4548 18.2488 18.5113 18.2488Z" fill="#1D1D1B"/>
<path d="M17.2915 19.4846C17.343 19.4846 17.3934 19.4691 17.4362 19.4401C17.4791 19.4111 17.5125 19.3699 17.5322 19.3217C17.5519 19.2734 17.5571 19.2204 17.547 19.1692C17.537 19.118 17.5121 19.0709 17.4757 19.034C17.4393 18.9971 17.3928 18.972 17.3423 18.9618C17.2917 18.9516 17.2394 18.9568 17.1917 18.9768C17.1441 18.9968 17.1034 19.0306 17.0748 19.074C17.0462 19.1174 17.0309 19.1685 17.0309 19.2207C17.0309 19.2907 17.0583 19.3578 17.1072 19.4073C17.1561 19.4568 17.2224 19.4846 17.2915 19.4846Z" fill="#1D1D1B"/>
<path d="M15.8702 20.4684C16.0338 20.4684 16.1663 20.3341 16.1663 20.1685C16.1663 20.0028 16.0338 19.8685 15.8702 19.8685C15.7067 19.8685 15.5742 20.0028 15.5742 20.1685C15.5742 20.3341 15.7067 20.4684 15.8702 20.4684Z" fill="#1D1D1B"/>
<path d="M14.3069 21.1403C14.4704 21.1403 14.603 21.006 14.603 20.8404C14.603 20.6747 14.4704 20.5404 14.3069 20.5404C14.1434 20.5404 14.0108 20.6747 14.0108 20.8404C14.0108 21.006 14.1434 21.1403 14.3069 21.1403Z" fill="#1D1D1B"/>
<path d="M12.6607 21.5363C12.8307 21.5363 12.9686 21.3966 12.9686 21.2243C12.9686 21.052 12.8307 20.9124 12.6607 20.9124C12.4906 20.9124 12.3527 21.052 12.3527 21.2243C12.3527 21.3966 12.4906 21.5363 12.6607 21.5363Z" fill="#1D1D1B"/>
<path d="M10.9671 21.6202C11.1437 21.6202 11.2868 21.4752 11.2868 21.2963C11.2868 21.1174 11.1437 20.9724 10.9671 20.9724C10.7904 20.9724 10.6473 21.1174 10.6473 21.2963C10.6473 21.4752 10.7904 21.6202 10.9671 21.6202Z" fill="#1D1D1B"/>
<path d="M9.28528 21.4043C9.46842 21.4043 9.61689 21.2539 9.61689 21.0683C9.61689 20.8828 9.46842 20.7324 9.28528 20.7324C9.10213 20.7324 8.95366 20.8828 8.95366 21.0683C8.95366 21.2539 9.10213 21.4043 9.28528 21.4043Z" fill="#1D1D1B"/>
<path d="M7.66273 20.9124C7.7601 20.9124 7.85348 20.8732 7.92234 20.8034C7.99119 20.7337 8.02987 20.6391 8.02987 20.5404C8.02987 20.4418 7.99119 20.3472 7.92234 20.2774C7.85348 20.2077 7.7601 20.1685 7.66273 20.1685C7.56535 20.1685 7.47197 20.2077 7.40311 20.2774C7.33426 20.3472 7.29558 20.4418 7.29558 20.5404C7.29558 20.6391 7.33426 20.7337 7.40311 20.8034C7.47197 20.8732 7.56535 20.9124 7.66273 20.9124Z" fill="#1D1D1B"/>
<path d="M6.17045 20.1085C6.37976 20.1085 6.54944 19.9366 6.54944 19.7246C6.54944 19.5125 6.37976 19.3406 6.17045 19.3406C5.96114 19.3406 5.79146 19.5125 5.79146 19.7246C5.79146 19.9366 5.96114 20.1085 6.17045 20.1085Z" fill="#1D1D1B"/>
<path d="M4.84398 19.0887C5.07946 19.0887 5.27035 18.8953 5.27035 18.6568C5.27035 18.4182 5.07946 18.2248 4.84398 18.2248C4.60851 18.2248 4.41762 18.4182 4.41762 18.6568C4.41762 18.8953 4.60851 19.0887 4.84398 19.0887Z" fill="#1D1D1B"/>
<path d="M3.7307 17.8409C3.84497 17.8227 3.94905 17.7637 4.02421 17.6746C4.09937 17.5855 4.14067 17.4722 4.14067 17.355C4.14067 17.2378 4.09937 17.1245 4.02421 17.0354C3.94905 16.9463 3.84497 16.8873 3.7307 16.8691C3.66139 16.858 3.59054 16.8623 3.52302 16.8816C3.45551 16.9009 3.39293 16.9349 3.33959 16.981C3.28626 17.0272 3.24344 17.0846 3.21408 17.1491C3.18471 17.2137 3.16951 17.2839 3.16951 17.355C3.16951 17.4261 3.18471 17.4963 3.21408 17.5608C3.24344 17.6254 3.28626 17.6827 3.33959 17.7289C3.39293 17.7751 3.45551 17.809 3.52302 17.8284C3.59054 17.8477 3.66139 17.852 3.7307 17.8409Z" fill="#1D1D1B"/>
<path d="M2.85427 16.4011C2.99045 16.4012 3.12123 16.3472 3.21863 16.2508C3.31602 16.1544 3.37229 16.0232 3.37538 15.8852C3.37538 15.7452 3.32048 15.611 3.22275 15.512C3.12502 15.4129 2.99248 15.3573 2.85427 15.3573C2.71813 15.3605 2.5886 15.4175 2.49342 15.5161C2.39824 15.6148 2.34497 15.7473 2.345 15.8852C2.345 16.0221 2.39866 16.1533 2.49416 16.25C2.58967 16.3468 2.7192 16.4011 2.85427 16.4011Z" fill="#1D1D1B"/>
<path d="M2.2621 14.8414C2.40973 14.8414 2.55132 14.782 2.65571 14.6763C2.7601 14.5705 2.81874 14.4271 2.81874 14.2775C2.81874 14.128 2.7601 13.9845 2.65571 13.8788C2.55132 13.773 2.40973 13.7136 2.2621 13.7136C2.11447 13.7136 1.97289 13.773 1.8685 13.8788C1.76411 13.9845 1.70546 14.128 1.70546 14.2775C1.70546 14.4271 1.76411 14.5705 1.8685 14.6763C1.97289 14.782 2.11447 14.8414 2.2621 14.8414Z" fill="#1D1D1B"/>
<path d="M1.96601 13.1617C2.27997 13.1617 2.53449 12.9039 2.53449 12.5858C2.53449 12.2678 2.27997 12.0099 1.96601 12.0099C1.65204 12.0099 1.39752 12.2678 1.39752 12.5858C1.39752 12.9039 1.65204 13.1617 1.96601 13.1617Z" fill="#1D1D1B"/>
<path d="M1.96602 11.446C2.11787 11.4429 2.26246 11.3796 2.36874 11.2696C2.47502 11.1597 2.53454 11.012 2.53451 10.8581C2.53451 10.699 2.47212 10.5464 2.36106 10.4339C2.25001 10.3214 2.09939 10.2582 1.94233 10.2582C1.78528 10.2582 1.63466 10.3214 1.5236 10.4339C1.41255 10.5464 1.35016 10.699 1.35016 10.8581C1.35001 10.9384 1.36611 11.018 1.39747 11.0917C1.42883 11.1655 1.47479 11.232 1.5325 11.2871C1.59021 11.3422 1.65845 11.3847 1.73301 11.412C1.80757 11.4394 1.88687 11.4509 1.96602 11.446Z" fill="#1D1D1B"/>
<path d="M2.26209 9.76631C2.37922 9.76631 2.49371 9.73112 2.59109 9.6652C2.68847 9.59929 2.76437 9.5056 2.80919 9.39598C2.85401 9.28636 2.86574 9.16574 2.84289 9.04938C2.82004 8.93301 2.76364 8.82612 2.68082 8.74222C2.59801 8.65832 2.49249 8.60119 2.37762 8.57804C2.26275 8.55489 2.14369 8.56677 2.03548 8.61218C1.92727 8.65758 1.83479 8.73447 1.76972 8.83313C1.70465 8.93178 1.66992 9.04776 1.66992 9.16641C1.66992 9.32551 1.73231 9.4781 1.84337 9.5906C1.95442 9.7031 2.10504 9.76631 2.26209 9.76631Z" fill="#1D1D1B"/>
<path d="M2.85428 8.18258C2.97608 8.18258 3.09515 8.14599 3.19643 8.07744C3.29771 8.00888 3.37665 7.91145 3.42326 7.79744C3.46987 7.68344 3.48207 7.558 3.4583 7.43698C3.43454 7.31595 3.37589 7.20479 3.28976 7.11753C3.20363 7.03028 3.09389 6.97086 2.97443 6.94679C2.85496 6.92271 2.73113 6.93507 2.6186 6.98229C2.50607 7.02951 2.40988 7.10948 2.34221 7.21208C2.27454 7.31467 2.23842 7.4353 2.23842 7.55869C2.23842 7.72416 2.3033 7.88285 2.4188 7.99985C2.5343 8.11685 2.69094 8.18258 2.85428 8.18258Z" fill="#1D1D1B"/>
<path d="M3.73069 6.73083C3.85718 6.73083 3.98083 6.69284 4.086 6.62164C4.19117 6.55045 4.27315 6.44927 4.32155 6.33088C4.36996 6.2125 4.38262 6.08223 4.35795 5.95655C4.33327 5.83087 4.27236 5.71543 4.18292 5.62482C4.09347 5.53421 3.97952 5.47251 3.85546 5.44751C3.7314 5.42251 3.60281 5.43534 3.48594 5.48438C3.36908 5.53341 3.2692 5.61645 3.19892 5.723C3.12865 5.82954 3.09114 5.95481 3.09114 6.08295C3.09114 6.25478 3.15852 6.41957 3.27846 6.54107C3.3984 6.66257 3.56107 6.73083 3.73069 6.73083Z" fill="#1D1D1B"/>
<path d="M4.84397 5.47106C5.02007 5.46808 5.18831 5.39671 5.31394 5.27167C5.43958 5.14663 5.513 4.97748 5.51905 4.79917C5.51595 4.61988 5.44345 4.449 5.31719 4.32333C5.19092 4.19766 5.02098 4.12726 4.84397 4.12729C4.66807 4.12729 4.49938 4.19808 4.375 4.32408C4.25062 4.45008 4.18074 4.62098 4.18074 4.79917C4.18378 4.9764 4.25464 5.14551 4.37836 5.27085C4.50209 5.39619 4.66902 5.46797 4.84397 5.47106Z" fill="#1D1D1B"/>
<path d="M6.17045 4.43923C6.5629 4.43923 6.88105 4.11693 6.88105 3.71936C6.88105 3.32178 6.5629 2.99948 6.17045 2.99948C5.77799 2.99948 5.45984 3.32178 5.45984 3.71936C5.45984 4.11693 5.77799 4.43923 6.17045 4.43923Z" fill="#1D1D1B"/>
<path d="M7.66272 3.59937C7.85746 3.59937 8.04423 3.521 8.18194 3.3815C8.31965 3.242 8.39701 3.05279 8.39701 2.8555C8.39701 2.65822 8.31965 2.46901 8.18194 2.32951C8.04423 2.19001 7.85746 2.11163 7.66272 2.11163C7.46797 2.11163 7.2812 2.19001 7.14349 2.32951C7.00578 2.46901 6.92842 2.65822 6.92842 2.8555C6.92842 3.05279 7.00578 3.242 7.14349 3.3815C7.2812 3.521 7.46797 3.59937 7.66272 3.59937Z" fill="#1D1D1B"/>
<path d="M9.28528 3.13146C9.48317 3.13146 9.67295 3.05182 9.81288 2.91007C9.9528 2.76832 10.0314 2.57606 10.0314 2.37559C10.0314 2.17512 9.9528 1.98286 9.81288 1.84111C9.67295 1.69936 9.48317 1.61972 9.28528 1.61972C9.08739 1.61972 8.89761 1.69936 8.75768 1.84111C8.61775 1.98286 8.53914 2.17512 8.53914 2.37559C8.53914 2.57606 8.61775 2.76832 8.75768 2.91007C8.89761 3.05182 9.08739 3.13146 9.28528 3.13146Z" fill="#1D1D1B"/>
<path d="M10.967 2.90349C11.3791 2.90349 11.7132 2.56508 11.7132 2.14762C11.7132 1.73017 11.3791 1.39175 10.967 1.39175C10.555 1.39175 10.2209 1.73017 10.2209 2.14762C10.2209 2.56508 10.555 2.90349 10.967 2.90349Z" fill="#1D1D1B"/>
<path d="M12.6607 2.98748C13.0793 2.98748 13.4186 2.6437 13.4186 2.21962C13.4186 1.79554 13.0793 1.45175 12.6607 1.45175C12.242 1.45175 11.9027 1.79554 11.9027 2.21962C11.9027 2.6437 12.242 2.98748 12.6607 2.98748Z" fill="#1D1D1B"/>
<path d="M14.3069 3.37141C14.7255 3.37141 15.0649 3.02763 15.0649 2.60354C15.0649 2.17946 14.7255 1.83568 14.3069 1.83568C13.8883 1.83568 13.5489 2.17946 13.5489 2.60354C13.5489 3.02763 13.8883 3.37141 14.3069 3.37141Z" fill="#1D1D1B"/>
<path d="M15.8702 4.0553C16.2954 4.0553 16.6401 3.70615 16.6401 3.27544C16.6401 2.84473 16.2954 2.49557 15.8702 2.49557C15.4451 2.49557 15.1004 2.84473 15.1004 3.27544C15.1004 3.70615 15.4451 4.0553 15.8702 4.0553Z" fill="#1D1D1B"/>
<path d="M17.2915 5.01513C17.4967 5.01198 17.6925 4.92716 17.8365 4.779C17.9806 4.63084 18.0613 4.43122 18.0613 4.22327C18.0613 4.01644 17.9802 3.81808 17.8358 3.67182C17.6914 3.52557 17.4956 3.44341 17.2915 3.44341C17.0862 3.44338 16.8891 3.52516 16.7429 3.67108C16.5966 3.817 16.5129 4.01534 16.5098 4.22327C16.5128 4.43232 16.5962 4.63194 16.7421 4.77977C16.888 4.92761 17.0851 5.01203 17.2915 5.01513Z" fill="#1D1D1B"/>
<path d="M18.5113 6.20293C18.7186 6.20293 18.9175 6.1195 19.0641 5.97099C19.2106 5.82249 19.293 5.62108 19.293 5.41106C19.293 5.20105 19.2106 4.99964 19.0641 4.85113C18.9175 4.70263 18.7186 4.6192 18.5113 4.6192C18.304 4.6192 18.1052 4.70263 17.9586 4.85113C17.812 4.99964 17.7297 5.20105 17.7297 5.41106C17.7297 5.62108 17.812 5.82249 17.9586 5.97099C18.1052 6.1195 18.304 6.20293 18.5113 6.20293Z" fill="#1D1D1B"/>
<path d="M19.518 7.61869C19.9628 7.61869 20.3234 7.25341 20.3234 6.80283C20.3234 6.35224 19.9628 5.98697 19.518 5.98697C19.0732 5.98697 18.7127 6.35224 18.7127 6.80283C18.7127 7.25341 19.0732 7.61869 19.518 7.61869Z" fill="#1D1D1B"/>
<path d="M20.2523 9.1784C20.459 9.17572 20.6571 9.09377 20.8065 8.94905C20.956 8.80434 21.0457 8.60762 21.0577 8.39854C21.0337 8.19767 20.9379 8.01266 20.7884 7.87846C20.6389 7.74426 20.4461 7.67017 20.2464 7.67017C20.0467 7.67017 19.8539 7.74426 19.7044 7.87846C19.5549 8.01266 19.4591 8.19767 19.4351 8.39854C19.4472 8.60968 19.5386 8.80812 19.6906 8.95314C19.8426 9.09816 20.0435 9.17876 20.2523 9.1784Z" fill="#1D1D1B"/>
<path d="M20.7024 10.8701C20.9097 10.8452 21.1008 10.7442 21.2395 10.586C21.3782 10.4279 21.4548 10.2238 21.4548 10.0123C21.4548 9.80076 21.3782 9.5966 21.2395 9.43849C21.1008 9.28038 20.9097 9.1793 20.7024 9.15442C20.495 9.1793 20.3039 9.28038 20.1652 9.43849C20.0266 9.5966 19.95 9.80076 19.95 10.0123C19.95 10.2238 20.0266 10.4279 20.1652 10.586C20.3039 10.7442 20.495 10.8452 20.7024 10.8701Z" fill="#1D1D1B"/>
<path d="M22.0762 13.4737C22.0958 13.4737 22.1117 13.4575 22.1117 13.4377C22.1117 13.4178 22.0958 13.4017 22.0762 13.4017C22.0566 13.4017 22.0407 13.4178 22.0407 13.4377C22.0407 13.4575 22.0566 13.4737 22.0762 13.4737Z" fill="#1D1D1B"/>
<path d="M21.6735 15.2374C21.6993 15.2374 21.7245 15.2296 21.7459 15.2151C21.7673 15.2006 21.784 15.18 21.7939 15.1559C21.8038 15.1318 21.8063 15.1052 21.8013 15.0796C21.7963 15.054 21.7839 15.0305 21.7657 15.0121C21.7474 14.9936 21.7242 14.981 21.699 14.9759C21.6737 14.9708 21.6475 14.9735 21.6237 14.9834C21.5999 14.9934 21.5795 15.0103 21.5652 15.0321C21.5509 15.0538 21.5433 15.0793 21.5433 15.1054C21.5433 15.1404 21.557 15.1739 21.5814 15.1987C21.6058 15.2234 21.639 15.2374 21.6735 15.2374Z" fill="#1D1D1B"/>
<path d="M21.0221 16.8211C21.0875 16.8211 21.1406 16.7674 21.1406 16.7011C21.1406 16.6348 21.0875 16.5811 21.0221 16.5811C20.9567 16.5811 20.9037 16.6348 20.9037 16.7011C20.9037 16.7674 20.9567 16.8211 21.0221 16.8211Z" fill="#1D1D1B"/>
<path d="M20.1339 18.3328C20.1557 18.3328 20.1772 18.3285 20.1973 18.32C20.2175 18.3116 20.2357 18.2992 20.2511 18.2836C20.2665 18.268 20.2787 18.2495 20.2871 18.2291C20.2954 18.2087 20.2997 18.1869 20.2997 18.1648C20.2997 18.1428 20.2954 18.1209 20.2871 18.1006C20.2787 18.0802 20.2665 18.0617 20.2511 18.0461C20.2357 18.0305 20.2175 18.0181 20.1973 18.0097C20.1772 18.0012 20.1557 17.9969 20.1339 17.9969C20.1121 17.9969 20.0906 18.0012 20.0704 18.0097C20.0503 18.0181 20.032 18.0305 20.0166 18.0461C20.0012 18.0617 19.989 18.0802 19.9807 18.1006C19.9724 18.1209 19.9681 18.1428 19.9681 18.1648C19.9681 18.1869 19.9724 18.2087 19.9807 18.2291C19.989 18.2495 20.0012 18.268 20.0166 18.2836C20.032 18.2992 20.0503 18.3116 20.0704 18.32C20.0906 18.3285 20.1121 18.3328 20.1339 18.3328Z" fill="#1D1D1B"/>
<path d="M19.0324 19.7126C19.0645 19.7142 19.0966 19.7092 19.1267 19.6979C19.1568 19.6865 19.1844 19.6691 19.2076 19.6467C19.2309 19.6242 19.2494 19.5972 19.2621 19.5673C19.2747 19.5374 19.2812 19.5052 19.2812 19.4726C19.2812 19.4395 19.2747 19.4068 19.2622 19.3762C19.2497 19.3456 19.2314 19.3178 19.2083 19.2945C19.1852 19.2711 19.1578 19.2525 19.1276 19.2398C19.0974 19.2272 19.0651 19.2207 19.0324 19.2207C19.0003 19.2206 18.9685 19.2272 18.939 19.24C18.9094 19.2528 18.8828 19.2716 18.8606 19.2951C18.8385 19.3187 18.8213 19.3466 18.8101 19.3771C18.7989 19.4076 18.794 19.4401 18.7956 19.4726C18.7956 19.5363 18.8205 19.5973 18.8649 19.6423C18.9094 19.6873 18.9696 19.7126 19.0324 19.7126Z" fill="#1D1D1B"/>
<path d="M17.7652 20.8524C17.8004 20.854 17.8356 20.8484 17.8685 20.8358C17.9015 20.8233 17.9317 20.8041 17.9571 20.7794C17.9826 20.7548 18.0029 20.7251 18.0167 20.6923C18.0305 20.6595 18.0376 20.6241 18.0376 20.5884C18.046 20.5482 18.0455 20.5066 18.036 20.4667C18.0265 20.4267 18.0083 20.3894 17.9828 20.3575C17.9572 20.3255 17.925 20.2998 17.8884 20.2821C17.8517 20.2644 17.8117 20.2552 17.7711 20.2552C17.7306 20.2552 17.6905 20.2644 17.6539 20.2821C17.6173 20.2998 17.585 20.3255 17.5595 20.3575C17.5339 20.3894 17.5158 20.4267 17.5063 20.4667C17.4968 20.5066 17.4962 20.5482 17.5046 20.5884C17.5046 20.6584 17.5321 20.7256 17.581 20.7751C17.6298 20.8246 17.6961 20.8524 17.7652 20.8524Z" fill="#1D1D1B"/>
<path d="M16.2966 21.7882C16.4601 21.7882 16.5927 21.6539 16.5927 21.4883C16.5927 21.3226 16.4601 21.1883 16.2966 21.1883C16.1331 21.1883 16.0005 21.3226 16.0005 21.4883C16.0005 21.6539 16.1331 21.7882 16.2966 21.7882Z" fill="#1D1D1B"/>
<path d="M14.7333 22.4481C14.8968 22.4481 15.0294 22.3138 15.0294 22.1482C15.0294 21.9825 14.8968 21.8482 14.7333 21.8482C14.5697 21.8482 14.4372 21.9825 14.4372 22.1482C14.4372 22.3138 14.5697 22.4481 14.7333 22.4481Z" fill="#1D1D1B"/>
<path d="M13.0278 22.868C13.1126 22.868 13.194 22.8339 13.2539 22.7731C13.3139 22.7124 13.3476 22.63 13.3476 22.5441C13.3334 22.4703 13.2943 22.4039 13.237 22.3561C13.1798 22.3083 13.1079 22.2822 13.0337 22.2822C12.9596 22.2822 12.8877 22.3083 12.8304 22.3561C12.7732 22.4039 12.7341 22.4703 12.7199 22.5441C12.7198 22.628 12.7519 22.7086 12.8093 22.769C12.8667 22.8294 12.9451 22.8649 13.0278 22.868Z" fill="#1D1D1B"/>
<path d="M11.3816 23C11.4279 23.0092 11.4756 23.0078 11.5214 22.9961C11.5671 22.9843 11.6097 22.9625 11.6461 22.9321C11.6825 22.9017 11.7119 22.8635 11.732 22.8203C11.7522 22.7771 11.7626 22.7299 11.7626 22.6821C11.7626 22.6343 11.7522 22.587 11.732 22.5438C11.7119 22.5006 11.6825 22.4624 11.6461 22.432C11.6097 22.4016 11.5671 22.3798 11.5214 22.368C11.4756 22.3563 11.4279 22.355 11.3816 22.3641C11.3088 22.3785 11.2432 22.4181 11.196 22.4761C11.1488 22.5341 11.123 22.6069 11.123 22.6821C11.123 22.7572 11.1488 22.83 11.196 22.888C11.2432 22.946 11.3088 22.9856 11.3816 23Z" fill="#1D1D1B"/>
<path d="M9.69979 22.868C9.8764 22.868 10.0196 22.723 10.0196 22.5441C10.0196 22.3652 9.8764 22.2201 9.69979 22.2201C9.52319 22.2201 9.38002 22.3652 9.38002 22.5441C9.38002 22.723 9.52319 22.868 9.69979 22.868Z" fill="#1D1D1B"/>
<path d="M8.0417 22.4961C8.23139 22.4961 8.38516 22.3403 8.38516 22.1482C8.38516 21.956 8.23139 21.8002 8.0417 21.8002C7.85201 21.8002 7.69824 21.956 7.69824 22.1482C7.69824 22.3403 7.85201 22.4961 8.0417 22.4961Z" fill="#1D1D1B"/>
<path d="M6.47838 21.8602C6.56593 21.8443 6.64518 21.7978 6.70227 21.7287C6.75936 21.6596 6.79064 21.5724 6.79064 21.4823C6.79064 21.3922 6.75936 21.3049 6.70227 21.2358C6.64518 21.1668 6.56593 21.1202 6.47838 21.1043C6.42382 21.0944 6.36779 21.0968 6.31423 21.1112C6.26068 21.1257 6.21089 21.1518 6.16839 21.1879C6.12589 21.2239 6.09171 21.2689 6.06826 21.3198C6.04481 21.3707 6.03265 21.4261 6.03265 21.4823C6.03265 21.5384 6.04481 21.5939 6.06826 21.6447C6.09171 21.6956 6.12589 21.7406 6.16839 21.7767C6.21089 21.8127 6.26068 21.8389 6.31423 21.8533C6.36779 21.8677 6.42382 21.8701 6.47838 21.8602Z" fill="#1D1D1B"/>
<path d="M5.03348 20.9964C5.25587 20.9964 5.43615 20.8137 5.43615 20.5884C5.43615 20.3631 5.25587 20.1805 5.03348 20.1805C4.81108 20.1805 4.6308 20.3631 4.6308 20.5884C4.6308 20.8137 4.81108 20.9964 5.03348 20.9964Z" fill="#1D1D1B"/>
<path d="M3.74253 19.9285C3.99109 19.9285 4.19258 19.7244 4.19258 19.4726C4.19258 19.2208 3.99109 19.0167 3.74253 19.0167C3.49398 19.0167 3.29248 19.2208 3.29248 19.4726C3.29248 19.7244 3.49398 19.9285 3.74253 19.9285Z" fill="#1D1D1B"/>
<path d="M2.64109 18.6808C2.77616 18.6808 2.90569 18.6264 3.0012 18.5296C3.09671 18.4329 3.15036 18.3017 3.15036 18.1648C3.1504 18.0269 3.09712 17.8944 3.00194 17.7957C2.90676 17.6971 2.77724 17.6401 2.64109 17.6369C2.50288 17.6369 2.37034 17.6926 2.27261 17.7916C2.17488 17.8906 2.11998 18.0248 2.11998 18.1648C2.12307 18.3028 2.17934 18.434 2.27674 18.5304C2.37413 18.6268 2.50491 18.6808 2.64109 18.6808Z" fill="#1D1D1B"/>
<path d="M1.75283 17.217C2.03409 17.217 2.2621 16.986 2.2621 16.7011C2.2621 16.4162 2.03409 16.1852 1.75283 16.1852C1.47157 16.1852 1.24356 16.4162 1.24356 16.7011C1.24356 16.986 1.47157 17.217 1.75283 17.217Z" fill="#1D1D1B"/>
<path d="M1.10144 15.6693C1.21154 15.6693 1.31916 15.6362 1.4107 15.5742C1.50224 15.5123 1.57358 15.4242 1.61571 15.3212C1.65784 15.2181 1.66887 15.1047 1.64739 14.9954C1.62591 14.886 1.5729 14.7855 1.49505 14.7066C1.4172 14.6278 1.31802 14.5741 1.21004 14.5523C1.10206 14.5306 0.990138 14.5417 0.888424 14.5844C0.786711 14.6271 0.699776 14.6994 0.638611 14.7921C0.577446 14.8848 0.5448 14.9938 0.5448 15.1054C0.5448 15.2549 0.603446 15.3984 0.707837 15.5041C0.812227 15.6099 0.953812 15.6693 1.10144 15.6693Z" fill="#1D1D1B"/>
<path d="M0.698763 14.0016C0.846394 14.0016 0.987978 13.9422 1.09237 13.8364C1.19676 13.7307 1.25541 13.5872 1.25541 13.4377C1.25541 13.2881 1.19676 13.1447 1.09237 13.0389C0.987978 12.9332 0.846394 12.8738 0.698763 12.8738C0.551132 12.8738 0.409548 12.9332 0.305157 13.0389C0.200766 13.1447 0.14212 13.2881 0.14212 13.4377C0.14212 13.5872 0.200766 13.7307 0.305157 13.8364C0.409548 13.9422 0.551132 14.0016 0.698763 14.0016Z" fill="#1D1D1B"/>
<path d="M0.568486 12.2979C0.882452 12.2979 1.13697 12.04 1.13697 11.722C1.13697 11.4039 0.882452 11.1461 0.568486 11.1461C0.25452 11.1461 0 11.4039 0 11.722C0 12.04 0.25452 12.2979 0.568486 12.2979Z" fill="#1D1D1B"/>
<path d="M0.698771 10.5942C0.855825 10.5942 1.00645 10.531 1.1175 10.4184C1.22855 10.3059 1.29094 10.1534 1.29094 9.99426C1.29094 9.83516 1.22855 9.68257 1.1175 9.57007C1.00645 9.45757 0.855825 9.39436 0.698771 9.39436C0.541717 9.39436 0.391095 9.45757 0.280041 9.57007C0.168987 9.68257 0.106598 9.83516 0.106598 9.99426C0.106598 10.1534 0.168987 10.3059 0.280041 10.4184C0.391095 10.531 0.541717 10.5942 0.698771 10.5942Z" fill="#1D1D1B"/>
<path d="M1.10144 8.93845C1.25754 8.93538 1.40641 8.87119 1.51681 8.75935C1.62721 8.64751 1.69058 8.4967 1.69361 8.33856C1.69361 8.17946 1.63122 8.02687 1.52016 7.91437C1.40911 7.80187 1.25849 7.73866 1.10144 7.73866C0.944381 7.73866 0.793759 7.80187 0.682706 7.91437C0.571652 8.02687 0.509262 8.17946 0.509262 8.33856C0.509262 8.49766 0.571652 8.65025 0.682706 8.76275C0.793759 8.87525 0.944381 8.93845 1.10144 8.93845Z" fill="#1D1D1B"/>
<path d="M1.75284 7.36673C2.09297 7.36673 2.3687 7.0874 2.3687 6.74283C2.3687 6.39827 2.09297 6.11894 1.75284 6.11894C1.41271 6.11894 1.13698 6.39827 1.13698 6.74283C1.13698 7.0874 1.41271 7.36673 1.75284 7.36673Z" fill="#1D1D1B"/>
<path d="M2.64109 5.91497C2.98776 5.91497 3.26879 5.63027 3.26879 5.27908C3.26879 4.92789 2.98776 4.64319 2.64109 4.64319C2.29441 4.64319 2.01338 4.92789 2.01338 5.27908C2.01338 5.63027 2.29441 5.91497 2.64109 5.91497Z" fill="#1D1D1B"/>
<path d="M3.74254 4.65519C3.91952 4.65204 4.0882 4.5786 4.21225 4.45069C4.3363 4.32278 4.4058 4.15062 4.40577 3.97131C4.40577 3.79311 4.33589 3.62222 4.21151 3.49621C4.08713 3.37021 3.91844 3.29942 3.74254 3.29942C3.56553 3.2994 3.39559 3.3698 3.26932 3.49547C3.14306 3.62114 3.07056 3.79202 3.06746 3.97131C3.0705 4.15172 3.14261 4.32388 3.26855 4.45147C3.3945 4.57906 3.56445 4.6521 3.74254 4.65519Z" fill="#1D1D1B"/>
<path d="M5.03348 3.59938C5.12524 3.59938 5.21611 3.58107 5.30088 3.54549C5.38566 3.50992 5.46269 3.45778 5.52758 3.39205C5.59247 3.32631 5.64394 3.24828 5.67905 3.16239C5.71417 3.07651 5.73224 2.98446 5.73224 2.8915C5.72919 2.70472 5.6546 2.52646 5.52421 2.39437C5.39382 2.26228 5.21785 2.18671 5.03348 2.18362C4.84815 2.18362 4.67042 2.2582 4.53938 2.39096C4.40833 2.52371 4.33471 2.70376 4.33471 2.8915C4.33311 2.98491 4.35009 3.07769 4.38464 3.1643C4.41918 3.25092 4.4706 3.32961 4.5358 3.39567C4.60101 3.46172 4.67868 3.51381 4.76419 3.5488C4.84969 3.5838 4.94127 3.601 5.03348 3.59938Z" fill="#1D1D1B"/>
<path d="M6.47838 2.68753C6.62127 2.68753 6.76095 2.64461 6.87975 2.56419C6.99856 2.48377 7.09116 2.36947 7.14584 2.23573C7.20052 2.102 7.21483 1.95485 7.18695 1.81288C7.15907 1.67091 7.09027 1.5405 6.98923 1.43815C6.88819 1.33579 6.75947 1.26609 6.61932 1.23785C6.47918 1.20961 6.33392 1.2241 6.20191 1.2795C6.0699 1.33489 5.95707 1.4287 5.87768 1.54905C5.7983 1.66941 5.75593 1.81091 5.75593 1.95566C5.75433 2.05222 5.77192 2.14811 5.80766 2.23764C5.8434 2.32717 5.89655 2.4085 5.96396 2.47679C6.03137 2.54507 6.11165 2.59892 6.20003 2.63513C6.2884 2.67133 6.38306 2.68915 6.47838 2.68753Z" fill="#1D1D1B"/>
<path d="M8.04171 2.03965C8.23646 2.03965 8.42323 1.96128 8.56094 1.82178C8.69865 1.68227 8.77601 1.49307 8.77601 1.29578C8.77601 1.09849 8.69865 0.909288 8.56094 0.769785C8.42323 0.630282 8.23646 0.55191 8.04171 0.55191C7.84697 0.55191 7.6602 0.630282 7.52249 0.769785C7.38478 0.909288 7.30742 1.09849 7.30742 1.29578C7.30742 1.49307 7.38478 1.68227 7.52249 1.82178C7.6602 1.96128 7.84697 2.03965 8.04171 2.03965Z" fill="#1D1D1B"/>
<path d="M9.6998 1.65572C10.1119 1.65572 10.4459 1.31731 10.4459 0.89985C10.4459 0.482396 10.1119 0.143982 9.6998 0.143982C9.28772 0.143982 8.95366 0.482396 8.95366 0.89985C8.95366 1.31731 9.28772 1.65572 9.6998 1.65572Z" fill="#1D1D1B"/>
<path d="M11.3816 1.52374C11.4805 1.52533 11.5788 1.50695 11.6707 1.46968C11.7626 1.43241 11.8463 1.37698 11.9168 1.30664C11.9874 1.23629 12.0434 1.15242 12.0816 1.05993C12.1199 0.967429 12.1396 0.868149 12.1396 0.767869C12.164 0.655689 12.1632 0.53939 12.1374 0.427542C12.1115 0.315694 12.0612 0.211147 11.9902 0.121603C11.9192 0.0320599 11.8292 -0.0401978 11.7269 -0.0898461C11.6247 -0.139494 11.5127 -0.165268 11.3993 -0.165268C11.2859 -0.165268 11.174 -0.139494 11.0717 -0.0898461C10.9695 -0.0401978 10.8795 0.0320599 10.8085 0.121603C10.7375 0.211147 10.6872 0.315694 10.6613 0.427542C10.6355 0.53939 10.6347 0.655689 10.6591 0.767869C10.659 0.964249 10.7344 1.15296 10.8692 1.29404C11.0041 1.43512 11.1878 1.5175 11.3816 1.52374Z" fill="#1D1D1B"/>
<path d="M13.0278 1.66772C13.1782 1.6701 13.3259 1.6271 13.4521 1.54418C13.5783 1.46127 13.6773 1.34219 13.7365 1.20211C13.7957 1.06203 13.8124 0.907273 13.7845 0.75754C13.7566 0.607807 13.6853 0.469867 13.5798 0.361275C13.4743 0.252684 13.3393 0.178351 13.1919 0.147737C13.0446 0.117123 12.8916 0.131613 12.7524 0.189362C12.6132 0.24711 12.4941 0.345507 12.4103 0.472029C12.3265 0.598551 12.2817 0.747477 12.2817 0.899853C12.2816 1.10144 12.3599 1.29496 12.4995 1.43862C12.6391 1.58228 12.8288 1.66457 13.0278 1.66772Z" fill="#1D1D1B"/>
<path d="M14.7333 2.06364C15.1519 2.06364 15.4912 1.71986 15.4912 1.29577C15.4912 0.871694 15.1519 0.527908 14.7333 0.527908C14.3146 0.527908 13.9753 0.871694 13.9753 1.29577C13.9753 1.71986 14.3146 2.06364 14.7333 2.06364Z" fill="#1D1D1B"/>
<path d="M16.2966 2.72352C16.4976 2.72352 16.6904 2.64262 16.8326 2.49862C16.9747 2.35462 17.0546 2.15931 17.0546 1.95566C17.0546 1.75201 16.9747 1.5567 16.8326 1.41269C16.6904 1.26869 16.4976 1.18779 16.2966 1.18779C16.0956 1.18779 15.9028 1.26869 15.7606 1.41269C15.6185 1.5567 15.5386 1.75201 15.5386 1.95566C15.5386 2.15931 15.6185 2.35462 15.7606 2.49862C15.9028 2.64262 16.0956 2.72352 16.2966 2.72352Z" fill="#1D1D1B"/>
<path d="M17.7652 3.59937C17.9694 3.59937 18.1652 3.51721 18.3095 3.37095C18.4539 3.2247 18.535 3.02634 18.535 2.81951C18.535 2.61267 18.4539 2.41431 18.3095 2.26806C18.1652 2.12181 17.9694 2.03964 17.7652 2.03964C17.561 2.03964 17.3652 2.12181 17.2208 2.26806C17.0765 2.41431 16.9954 2.61267 16.9954 2.81951C16.9954 3.02634 17.0765 3.2247 17.2208 3.37095C17.3652 3.51721 17.561 3.59937 17.7652 3.59937Z" fill="#1D1D1B"/>
<path d="M19.0324 4.76317C19.4641 4.76317 19.8141 4.40864 19.8141 3.97131C19.8141 3.53397 19.4641 3.17944 19.0324 3.17944C18.6007 3.17944 18.2508 3.53397 18.2508 3.97131C18.2508 4.40864 18.6007 4.76317 19.0324 4.76317Z" fill="#1D1D1B"/>
<path d="M20.1339 6.08294C20.3443 6.08294 20.5462 5.99825 20.695 5.8475C20.8438 5.69674 20.9274 5.49228 20.9274 5.27908C20.9274 5.12009 20.8808 4.96467 20.7937 4.83248C20.7065 4.70029 20.5825 4.59725 20.4375 4.53641C20.2925 4.47557 20.133 4.45965 19.9791 4.49067C19.8251 4.52168 19.6838 4.59824 19.5728 4.71067C19.4618 4.82309 19.3862 4.96632 19.3556 5.12225C19.325 5.27819 19.3407 5.43982 19.4008 5.5867C19.4608 5.73359 19.5625 5.85914 19.693 5.94747C19.8235 6.03579 19.9769 6.08294 20.1339 6.08294Z" fill="#1D1D1B"/>
<path d="M21.0221 7.57068C21.1842 7.57306 21.3434 7.52654 21.4793 7.43703C21.6153 7.34752 21.7218 7.21908 21.7855 7.06803C21.8492 6.91699 21.8671 6.75017 21.8369 6.5888C21.8067 6.42743 21.7298 6.2788 21.616 6.16182C21.5022 6.04484 21.3567 5.96479 21.1978 5.93186C21.039 5.89893 20.8741 5.91461 20.724 5.9769C20.574 6.03919 20.4457 6.14528 20.3554 6.28167C20.265 6.41806 20.2168 6.57858 20.2168 6.74282C20.2168 6.96032 20.3012 7.16909 20.4519 7.32401C20.6026 7.47892 20.8075 7.56753 21.0221 7.57068Z" fill="#1D1D1B"/>
<path d="M21.6735 9.17841C21.8375 9.17841 21.9978 9.12915 22.1341 9.03687C22.2705 8.94459 22.3767 8.81342 22.4395 8.65996C22.5022 8.50649 22.5186 8.33763 22.4866 8.17471C22.4546 8.01179 22.3757 7.86215 22.2597 7.74469C22.1438 7.62724 21.9961 7.54725 21.8353 7.51484C21.6744 7.48243 21.5078 7.49907 21.3563 7.56263C21.2048 7.6262 21.0753 7.73385 20.9842 7.87196C20.8931 8.01007 20.8445 8.17245 20.8445 8.33856C20.8445 8.5613 20.9318 8.77492 21.0873 8.93242C21.2428 9.08993 21.4536 9.17841 21.6735 9.17841Z" fill="#1D1D1B"/>
<path d="M22.0762 10.8701C22.2449 10.8701 22.4097 10.8194 22.55 10.7245C22.6902 10.6296 22.7995 10.4947 22.864 10.3368C22.9286 10.179 22.9455 10.0053 22.9126 9.83773C22.8797 9.67016 22.7984 9.51624 22.6792 9.39543C22.5599 9.27461 22.408 9.19234 22.2426 9.15901C22.0772 9.12568 21.9057 9.14278 21.7499 9.20817C21.5941 9.27355 21.4609 9.38427 21.3672 9.52633C21.2735 9.66839 21.2235 9.83541 21.2235 10.0063C21.2219 10.1202 21.2429 10.2332 21.2851 10.3387C21.3274 10.4443 21.3902 10.5402 21.4697 10.6207C21.5492 10.7012 21.6438 10.7648 21.748 10.8076C21.8522 10.8505 21.9638 10.8717 22.0762 10.8701Z" fill="#1D1D1B"/>
<path d="M23 11.674C23 12.254 22.8299 12.8209 22.5113 13.3029C22.1927 13.7848 21.74 14.16 21.2105 14.3808C20.6811 14.6017 20.0989 14.6582 19.5377 14.5433C18.9765 14.4284 18.4616 14.1472 18.0584 13.7354C17.6552 13.3236 17.3819 12.7997 17.2731 12.2302C17.1643 11.6608 17.2249 11.0714 17.4472 10.5369C17.6696 10.0025 18.0437 9.54692 18.522 9.22815C19.0003 8.90937 19.5614 8.74173 20.1339 8.74648C20.5118 8.74805 20.8858 8.82502 21.2343 8.973C21.5829 9.12097 21.8993 9.33704 22.1655 9.60889C22.4316 9.88073 22.6423 10.203 22.7855 10.5573C22.9287 10.9117 23.0016 11.2911 23 11.674Z" fill="#1D1D1B"/>
</svg>
