<svg width="23" height="23" viewBox="0 0 23 23" fill="none" xmlns="http://www.w3.org/2000/svg">
<g clip-path="url(#clip0_90_1634)">
<path d="M21.0226 21.7222H1.85593C1.50326 21.7222 1.21704 21.436 1.21704 21.0833C1.21704 20.7307 1.50326 20.4444 1.85593 20.4444H21.0226C21.3753 20.4444 21.6615 20.7307 21.6615 21.0833C21.6615 21.436 21.3753 21.7222 21.0226 21.7222Z" fill="#898989"/>
<path d="M17.8889 6.06945C17.7122 6.06945 17.6301 5.92665 17.6301 5.75V3.8212C17.6301 3.19445 18.1448 3.19445 18.354 3.19445H19.106C19.2823 3.19445 19.4254 3.33724 19.4254 3.51389C19.4254 3.69054 19.2823 3.83334 19.106 3.83334H18.354C18.2467 3.83334 18.1844 3.83845 18.1483 3.84452L18.178 5.75C18.178 5.92665 18.0652 6.06945 17.8889 6.06945Z" fill="#898989"/>
<path d="M17.8282 6.76584C17.7449 6.76584 17.6618 6.7307 17.6014 6.6732C17.5436 6.61282 17.5088 6.52945 17.5088 6.44639C17.5088 6.36334 17.5436 6.28028 17.6014 6.21959C17.7228 6.0982 17.9368 6.10139 18.055 6.21959C18.1125 6.28028 18.1477 6.36014 18.1477 6.44639C18.1477 6.52945 18.1125 6.61282 18.055 6.6732C17.994 6.73038 17.911 6.76584 17.8282 6.76584Z" fill="#898989"/>
<path d="M7.4079 16.9523C7.4079 18.1751 6.41634 19.1667 5.19351 19.1667H3.55252C2.32969 19.1667 1.33813 18.1751 1.33813 16.9523V10.5199C1.33845 9.29711 2.33001 8.30556 3.55284 8.30556H5.19383C6.41666 8.30556 7.40822 9.29711 7.40822 10.5199L7.4079 16.9523ZM6.13012 10.5199C6.13012 10.0028 5.71069 9.58333 5.19351 9.58333H3.55252C3.03534 9.58333 2.61591 10.0028 2.61591 10.5199V16.9526C2.61623 17.4698 3.03566 17.8889 3.55284 17.8889H5.19383C5.71101 17.8889 6.13044 17.4695 6.13044 16.9523L6.13012 10.5199Z" fill="#898989"/>
<path d="M14.7552 16.9523C14.7552 18.1751 13.7636 19.1667 12.5408 19.1667H10.8998C9.67698 19.1667 8.68542 18.1751 8.68542 16.9523V7.00605C8.68542 5.78322 9.67698 4.79166 10.8998 4.79166H12.5408C13.7636 4.79166 14.7552 5.78322 14.7552 7.00605V16.9523ZM13.4774 7.00605C13.4774 6.48887 13.058 6.06944 12.5408 6.06944H10.8998C10.3826 6.06944 9.9632 6.48887 9.9632 7.00605V16.9526C9.9632 17.4698 10.3826 17.8892 10.8998 17.8892H12.5408C13.058 17.8892 13.4774 17.4698 13.4774 16.9526V7.00605Z" fill="#898989"/>
<path d="M21.7829 16.9523C21.7829 18.1751 20.7913 19.1667 19.5685 19.1667H17.9275C16.7047 19.1667 15.7131 18.1751 15.7131 16.9523V3.49217C15.7135 2.26933 16.705 1.27778 17.9278 1.27778H19.5688C20.7917 1.27778 21.7832 2.26933 21.7832 3.49217L21.7829 16.9523ZM20.5051 3.49217C20.5051 2.97499 20.086 2.55556 19.5688 2.55556H17.9278C17.4107 2.55556 16.9912 2.97499 16.9912 3.49217V16.9526C16.9912 17.4698 17.4107 17.8892 17.9278 17.8892H19.5688C20.086 17.8892 20.5054 17.4698 20.5054 16.9526L20.5051 3.49217Z" fill="#898989"/>
</g>
<defs>
<clipPath id="clip0_90_1634">
<rect width="23" height="23" fill="white"/>
</clipPath>
</defs>
</svg>
