<svg width="24" height="24" viewBox="0 0 24 24" fill="none" xmlns="http://www.w3.org/2000/svg">
<path d="M1.5 7.5V21C1.5 21.3978 1.65804 21.7794 1.93934 22.0607C2.22064 22.342 2.60218 22.5 3 22.5H16.5" stroke="#898989" stroke-linecap="round" stroke-linejoin="round"/>
<path d="M6.75 16.125C6.75 15.5037 6.24632 15 5.625 15C5.00368 15 4.5 15.5037 4.5 16.125V18.375C4.5 18.9963 5.00368 19.5 5.625 19.5C6.24632 19.5 6.75 18.9963 6.75 18.375V16.125Z" stroke="#898989" stroke-linecap="round" stroke-linejoin="round"/>
<path d="M11.25 12.375C11.25 11.7537 10.7463 11.25 10.125 11.25C9.50368 11.25 9 11.7537 9 12.375V14.625C9 15.2463 9.50368 15.75 10.125 15.75C10.7463 15.75 11.25 15.2463 11.25 14.625V12.375Z" stroke="#898989" stroke-linecap="round" stroke-linejoin="round"/>
<path d="M15.75 9.375C15.75 8.75368 15.2463 8.25 14.625 8.25C14.0037 8.25 13.5 8.75368 13.5 9.375V11.625C13.5 12.2463 14.0037 12.75 14.625 12.75C15.2463 12.75 15.75 12.2463 15.75 11.625V9.375Z" stroke="#898989" stroke-linecap="round" stroke-linejoin="round"/>
</svg>
