<svg width="25" height="26" viewBox="0 0 25 26" fill="none" xmlns="http://www.w3.org/2000/svg">
<g clip-path="url(#clip0_90_1671)">
<path d="M15.5938 7.31249C15.5938 8.06038 15.0109 8.66666 14.2917 8.66666C13.5725 8.66666 12.9896 8.06038 12.9896 7.31249C12.9896 6.5646 13.5725 5.95833 14.2917 5.95833C15.0109 5.95833 15.5938 6.5646 15.5938 7.31249Z" stroke="#898989"/>
<path d="M9.09144 13C7.79793 11.6208 7 9.72942 7 7.64262C7 3.42172 10.2646 0 14.2917 0C18.3187 0 21.5833 3.42172 21.5833 7.64262C21.5833 9.71176 20.7987 11.589 19.5245 12.965M11.154 10.8382C10.3882 10.0124 9.91667 8.88518 9.91667 7.64262C9.91667 5.11008 11.8754 3.05705 14.2917 3.05705C16.7079 3.05705 18.6667 5.11008 18.6667 7.64262C18.6667 8.86763 18.2083 9.98043 17.4617 10.803" stroke="#898989" stroke-linecap="round"/>
<path d="M18.4583 21.6667L14.2917 8.66666L10.125 21.6667" stroke="#898989" stroke-linecap="round" stroke-linejoin="round"/>
<path d="M16.8958 16.7917H11.6875" stroke="#898989" stroke-linecap="round"/>
</g>
<defs>
<clipPath id="clip0_90_1671">
<rect width="25" height="26" fill="white"/>
</clipPath>
</defs>
</svg>
