<svg width="21" height="36" viewBox="0 0 21 36" fill="none" xmlns="http://www.w3.org/2000/svg">
<path d="M12.4319 1.1925C12.1281 1.4625 9.76562 6.15093 9.76562 6.15093L8.00781 13.2412L14.8478 12.6141C14.8478 12.6141 20.5375 2.03343 20.6528 1.78875C20.8581 1.34437 20.9678 1.16156 20.1831 1.16156C19.3984 1.15875 12.7159 0.939371 12.4319 1.1925Z" fill="#176CC7"/>
<path d="M15.9724 12.1753C15.6321 11.9925 5.60838 11.835 5.37213 12.1753C5.15838 12.4847 5.18932 13.8994 5.29338 14.0822C5.39744 14.265 8.76682 15.8316 8.76682 15.8316L8.764 16.4025C8.764 16.4025 8.94963 16.8497 10.8284 16.8497C12.7071 16.8497 12.9012 16.47 12.9012 16.47L12.9181 15.8934C12.9181 15.8934 15.8684 14.4197 16.0231 14.2903C16.1806 14.1581 16.3128 12.3581 15.9724 12.1753ZM12.8843 14.5181C12.8843 14.5181 12.8759 14.1244 12.6818 14.0259C12.4878 13.9275 9.36307 13.9444 9.09869 13.9584C8.83432 13.9725 8.83432 14.445 8.83432 14.445L6.69682 13.4044V13.1963L14.6562 13.2525L14.6703 13.4888L12.8843 14.5181Z" fill="#FCC417"/>
<path d="M9.66723 14.3916C9.40285 14.3916 9.25098 14.6672 9.25098 15.1425C9.25098 15.5869 9.40285 15.9609 9.73754 15.9328C10.0132 15.9103 10.1088 15.4884 10.0835 15.1144C10.0582 14.67 10.0019 14.3916 9.66723 14.3916Z" fill="#FDFFFF"/>
<path d="M1.15039 25.515C1.15039 32.2538 7.24227 35.2547 11.2923 35.1113C15.7585 34.9509 21.1079 31.4691 20.7845 25.0397C20.4779 18.9478 15.3535 16.0594 10.9154 16.0903C5.75727 16.1269 1.15039 19.6284 1.15039 25.515Z" fill="#FCC417"/>
<path d="M11.1492 33.9384C11.0789 33.9384 11.0057 33.9384 10.9354 33.9356C8.82604 33.8653 6.74198 32.9766 5.2176 31.5C3.58635 29.9194 2.69198 27.7819 2.70323 25.4841C2.72854 19.8731 7.63354 17.2716 10.9607 17.2716H10.9889C15.4973 17.2912 19.1985 20.7956 19.3026 25.5459C19.3476 27.6609 18.4814 29.88 16.7826 31.5506C15.1964 33.1059 13.0926 33.9384 11.1492 33.9384ZM10.9551 18.2053C7.97104 18.2053 3.55823 20.6466 3.54698 25.4841C3.53854 29.1009 6.33979 32.8191 11.0057 32.9766C12.7832 33.0328 14.6142 32.3522 16.0935 30.8981C17.6292 29.3878 18.4926 27.4416 18.4617 25.5572C18.3942 21.4706 15.0529 18.2194 10.9973 18.2025C10.986 18.2025 10.9635 18.2053 10.9551 18.2053Z" fill="#FA912C"/>
<path d="M9.26201 17.0466C9.06795 16.7794 6.86857 16.83 4.79014 18.8606C2.78482 20.8209 2.56826 22.6688 2.95357 22.7756C3.38951 22.8966 3.92107 20.9391 5.75764 19.2938C7.44514 17.7863 9.65014 17.5781 9.26201 17.0466Z" fill="#FEFFFA"/>
<path d="M17.7697 24.3225C17.0919 24.4181 17.795 26.4488 16.2228 28.7213C14.8588 30.6928 13.3119 31.4072 13.4919 31.8403C13.7338 32.4197 16.2116 30.9769 17.3591 28.6256C18.3997 26.4966 18.276 24.2494 17.7697 24.3225Z" fill="#FEFFFA"/>
<path d="M8.70805 21.6619C8.5618 21.8784 8.69398 23.7769 8.78117 23.8612C8.94992 24.03 10.2324 23.4253 10.2324 23.4253L10.1846 28.5019C10.1846 28.5019 9.24242 28.4906 9.14398 28.5272C8.94992 28.6003 8.97523 30.5578 9.11867 30.6534C9.26211 30.7491 13.1068 30.7997 13.253 30.6056C13.3993 30.4116 13.3627 28.6987 13.2952 28.62C13.1743 28.4737 12.2546 28.5328 12.2546 28.5328C12.2546 28.5328 12.3334 21.0572 12.308 20.8181C12.2827 20.5791 12.0184 20.43 11.7034 20.5031C11.3884 20.5762 8.80086 21.5212 8.70805 21.6619Z" fill="#FA912C"/>
<path d="M0.174314 1.04625C-0.00287333 1.20937 6.77244 13.275 6.77244 13.275C6.77244 13.275 7.90869 13.4212 10.4456 13.4437C12.9824 13.4662 14.2396 13.2975 14.2396 13.2975C14.2396 13.2975 8.97181 1.16718 8.65681 1.04625C8.50213 0.98437 6.41525 0.96187 4.37619 0.93937C2.33431 0.914057 0.343064 0.888745 0.174314 1.04625Z" fill="#2E9DF4"/>
<path d="M12.4319 1.1925C12.1281 1.4625 9.76562 6.15093 9.76562 6.15093L8.00781 13.2412L14.8478 12.6141C14.8478 12.6141 20.5375 2.03343 20.6528 1.78875C20.8581 1.34437 20.9678 1.16156 20.1831 1.16156C19.3984 1.15875 12.7159 0.939371 12.4319 1.1925Z" fill="#176CC7"/>
<path d="M15.9724 12.1753C15.6321 11.9925 5.60838 11.835 5.37213 12.1753C5.15838 12.4847 5.18932 13.8994 5.29338 14.0822C5.39744 14.265 8.76682 15.8316 8.76682 15.8316L8.764 16.4025C8.764 16.4025 8.94963 16.8497 10.8284 16.8497C12.7071 16.8497 12.9012 16.47 12.9012 16.47L12.9181 15.8934C12.9181 15.8934 15.8684 14.4197 16.0231 14.2903C16.1806 14.1581 16.3128 12.3581 15.9724 12.1753ZM12.8843 14.5181C12.8843 14.5181 12.8759 14.1244 12.6818 14.0259C12.4878 13.9275 9.36307 13.9444 9.09869 13.9584C8.83432 13.9725 8.83432 14.445 8.83432 14.445L6.69682 13.4044V13.1963L14.6562 13.2525L14.6703 13.4888L12.8843 14.5181Z" fill="#FCC417"/>
<path d="M9.66723 14.3916C9.40285 14.3916 9.25098 14.6672 9.25098 15.1425C9.25098 15.5869 9.40285 15.9609 9.73754 15.9328C10.0132 15.9103 10.1088 15.4884 10.0835 15.1144C10.0582 14.67 10.0019 14.3916 9.66723 14.3916Z" fill="#FDFFFF"/>
<path d="M1.15039 25.515C1.15039 32.2538 7.24227 35.2547 11.2923 35.1113C15.7585 34.9509 21.1079 31.4691 20.7845 25.0397C20.4779 18.9478 15.3535 16.0594 10.9154 16.0903C5.75727 16.1269 1.15039 19.6284 1.15039 25.515Z" fill="#FCC417"/>
<path d="M11.1492 33.9384C11.0789 33.9384 11.0057 33.9384 10.9354 33.9356C8.82604 33.8653 6.74198 32.9766 5.2176 31.5C3.58635 29.9194 2.69198 27.7819 2.70323 25.4841C2.72854 19.8731 7.63354 17.2716 10.9607 17.2716H10.9889C15.4973 17.2912 19.1985 20.7956 19.3026 25.5459C19.3476 27.6609 18.4814 29.88 16.7826 31.5506C15.1964 33.1059 13.0926 33.9384 11.1492 33.9384ZM10.9551 18.2053C7.97104 18.2053 3.55823 20.6466 3.54698 25.4841C3.53854 29.1009 6.33979 32.8191 11.0057 32.9766C12.7832 33.0328 14.6142 32.3522 16.0935 30.8981C17.6292 29.3878 18.4926 27.4416 18.4617 25.5572C18.3942 21.4706 15.0529 18.2194 10.9973 18.2025C10.986 18.2025 10.9635 18.2053 10.9551 18.2053Z" fill="#FA912C"/>
<path d="M9.26201 17.0466C9.06795 16.7794 6.86857 16.83 4.79014 18.8606C2.78482 20.8209 2.56826 22.6688 2.95357 22.7756C3.38951 22.8966 3.92107 20.9391 5.75764 19.2938C7.44514 17.7863 9.65014 17.5781 9.26201 17.0466Z" fill="#FEFFFA"/>
<path d="M17.7697 24.3225C17.0919 24.4181 17.795 26.4488 16.2228 28.7213C14.8588 30.6928 13.3119 31.4072 13.4919 31.8403C13.7338 32.4197 16.2116 30.9769 17.3591 28.6256C18.3997 26.4966 18.276 24.2494 17.7697 24.3225Z" fill="#FEFFFA"/>
<path d="M8.70805 21.6619C8.5618 21.8784 8.69398 23.7769 8.78117 23.8612C8.94992 24.03 10.2324 23.4253 10.2324 23.4253L10.1846 28.5019C10.1846 28.5019 9.24242 28.4906 9.14398 28.5272C8.94992 28.6003 8.97523 30.5578 9.11867 30.6534C9.26211 30.7491 13.1068 30.7997 13.253 30.6056C13.3993 30.4116 13.3627 28.6987 13.2952 28.62C13.1743 28.4737 12.2546 28.5328 12.2546 28.5328C12.2546 28.5328 12.3334 21.0572 12.308 20.8181C12.2827 20.5791 12.0184 20.43 11.7034 20.5031C11.3884 20.5762 8.80086 21.5212 8.70805 21.6619Z" fill="#FA912C"/>
<path d="M0.174314 1.04625C-0.00287333 1.20937 6.77244 13.275 6.77244 13.275C6.77244 13.275 7.90869 13.4212 10.4456 13.4437C12.9824 13.4662 14.2396 13.2975 14.2396 13.2975C14.2396 13.2975 8.97181 1.16718 8.65681 1.04625C8.50213 0.98437 6.41525 0.96187 4.37619 0.93937C2.33431 0.914057 0.343064 0.888745 0.174314 1.04625Z" fill="#2E9DF4"/>
</svg>
