<svg width="21" height="36" viewBox="0 0 21 36" fill="none" xmlns="http://www.w3.org/2000/svg">
<path d="M12.4319 1.1925C12.1281 1.4625 9.76562 6.15093 9.76562 6.15093L8.00781 13.2412L14.8478 12.6141C14.8478 12.6141 20.5375 2.03343 20.6528 1.78875C20.8581 1.34437 20.9678 1.16156 20.1831 1.16156C19.3984 1.15875 12.7159 0.939371 12.4319 1.1925Z" fill="#176CC7"/>
<path d="M15.9722 12.1753C15.6319 11.9925 5.60813 11.835 5.37188 12.1753C5.15813 12.4847 5.27907 14.1075 5.36063 14.3016C5.50688 14.6391 8.74407 16.11 8.74407 16.11L8.6822 16.7794C8.6822 16.7794 8.94657 16.8469 10.8281 16.8469C12.7097 16.8469 13.0809 16.7513 13.0809 16.7513L13.0866 16.1466C13.0866 16.1466 16.0003 14.7291 16.1466 14.5322C16.2703 14.3691 16.3125 12.3581 15.9722 12.1753ZM12.9881 14.7403C12.9881 14.7403 13.0809 14.3269 12.8869 14.2313C12.6928 14.1328 9.36282 14.1778 9.09845 14.1919C8.83407 14.2059 8.83407 14.6784 8.83407 14.6784L6.69657 13.4044V13.1963L14.6559 13.2525L14.67 13.4888L12.9881 14.7403Z" fill="#CECDD2"/>
<path d="M9.66723 14.3916C9.40285 14.3916 9.25098 14.6672 9.25098 15.1425C9.25098 15.5869 9.40285 15.9609 9.73754 15.9328C10.0132 15.9103 10.1088 15.4884 10.0835 15.1144C10.0582 14.67 10.0019 14.3916 9.66723 14.3916Z" fill="#FDFFFF"/>
<path d="M1.14746 25.844C1.14746 32.5828 7.34902 35.4431 11.4018 35.3222C16.124 35.1815 21.1078 31.5984 20.7843 25.169C20.4778 19.0772 15.3112 16.3687 10.8731 16.3997C5.71496 16.4391 1.14746 19.9575 1.14746 25.844Z" fill="#CECDD2"/>
<path d="M11.1492 34.0678C11.0789 34.0678 11.0057 34.0678 10.9354 34.065C8.82604 33.9947 6.74198 33.1059 5.2176 31.6294C3.58635 30.0488 2.69198 27.9113 2.70323 25.6134C2.72854 20.0025 7.63354 17.4009 10.9607 17.4009H10.9889C15.4973 17.4206 19.1985 20.925 19.3026 25.6753C19.3476 27.7903 18.4814 30.0094 16.7826 31.68C15.1964 33.2353 13.0926 34.0678 11.1492 34.0678ZM10.9551 18.3347C7.97104 18.3347 3.55823 20.7759 3.54698 25.6134C3.53854 29.2303 6.33979 32.9484 11.0057 33.1059C12.7832 33.1622 14.6142 32.4816 16.0935 31.0275C17.6292 29.5172 18.4926 27.5709 18.4617 25.6866C18.3885 21.6 15.0473 18.3488 10.9917 18.3291C10.986 18.3291 10.9635 18.3347 10.9551 18.3347Z" fill="#9B9B9D"/>
<path d="M9.33813 17.2884C9.14407 17.0212 7.15563 17.0972 5.01532 18.9394C2.88907 20.7703 2.57126 22.7953 2.95376 22.9022C3.3897 23.0231 3.92126 21.0656 5.75782 19.4203C7.44532 17.9156 9.72345 17.82 9.33813 17.2884Z" fill="#FEFFFA"/>
<path d="M17.716 24.6713C17.0382 24.7669 17.7413 26.7975 16.1691 29.07C14.8051 31.0416 13.2582 31.7559 13.4382 32.1891C13.6801 32.7684 16.1579 31.3256 17.3054 28.9744C18.3432 26.8481 18.2194 24.6009 17.716 24.6713Z" fill="#FEFFFA"/>
<path d="M0.174314 1.04625C-0.00287333 1.20937 6.77244 13.275 6.77244 13.275C6.77244 13.275 7.90869 13.4212 10.4456 13.4437C12.9824 13.4662 14.2396 13.2975 14.2396 13.2975C14.2396 13.2975 8.97181 1.16718 8.65681 1.04625C8.50213 0.98437 6.41525 0.96187 4.37619 0.93937C2.33431 0.914057 0.343064 0.888745 0.174314 1.04625Z" fill="#2E9DF4"/>
<path d="M8.98952 24.2859C9.28202 24.2887 9.54358 23.8922 9.78546 23.6503C10.3001 23.1328 10.8401 22.7222 11.4561 23.2791C12.9692 24.6544 9.93171 26.0494 8.77858 27.9562C7.91796 29.3794 7.74358 30.4734 7.98264 30.7659C8.22171 31.0584 14.0408 31.0444 14.1195 30.8981C14.1983 30.7519 14.2798 28.8028 14.1448 28.71C14.0098 28.6172 11.1495 28.6706 11.1495 28.6706C11.1495 28.6706 11.3886 28.1137 12.3701 27.2644C13.4473 26.3334 14.3108 25.0537 14.0801 23.5406C13.602 20.4131 10.452 20.2978 9.08796 21.3862C7.75764 22.4466 8.04452 24.2747 8.98952 24.2859Z" fill="#9B9B9D"/>
</svg>
