<svg width="21" height="33" viewBox="0 0 21 33" fill="none" xmlns="http://www.w3.org/2000/svg">
<path fill-rule="evenodd" clip-rule="evenodd" d="M17.1 28.05V19.8H3.89998V28.05C3.89998 28.9608 4.63918 29.7 5.54998 29.7H15.45C16.3608 29.7 17.1 28.9608 17.1 28.05ZM3.89998 4.95V16.5H17.1V4.95C17.1 4.0392 16.3608 3.3 15.45 3.3H5.54998C4.63918 3.3 3.89998 4.0392 3.89998 4.95ZM20.4 3.3V29.7C20.4 31.5232 18.9232 33 17.1 33H3.89998C2.07673 33 0.599976 31.5232 0.599976 29.7V3.3C0.599976 1.47675 2.07673 0 3.89998 0H17.1C18.9232 0 20.4 1.47675 20.4 3.3ZM12.1846 24.75C12.1846 25.6608 11.4454 26.4 10.5346 26.4C9.62382 26.4 8.88462 25.6608 8.88462 24.75C8.88462 23.8392 9.62382 23.1 10.5346 23.1C11.4454 23.1 12.1846 23.8392 12.1846 24.75Z" fill="#775DA6"/>
</svg>
